<?xml version="1.0" ?>
<!-- Uploaded to: SVG Repo, www.svgrepo.com, Generator: SVG Repo Mixer Tools -->
<svg width="800px" height="800px" viewBox="0 0 64 64" xmlns="http://www.w3.org/2000/svg">
<defs>
<style>.cls-1{fill:#f0f4f7;}.cls-2{fill:#d0e1e8;}.cls-3{fill:#efc89d;}.cls-4{fill:#ebb87f;}.cls-5{fill:#e0e9ee;}.cls-6{fill:#dd5891;}.cls-7{fill:#748a95;}</style>
</defs>
<g data-name="Japanese Ghost" id="Japanese_Ghost">
<path class="cls-1" d="M45,47.46V21.79H19V47.46Z" id="path41632-2"/>
<path class="cls-2" d="M23.43,34.47a1,1,0,0,0-1,1v6.19a1,1,0,0,0,2,0V35.47A1,1,0,0,0,23.43,34.47Z" id="path32318"/>
<path class="cls-2" d="M40.52,34.47a1,1,0,0,0-1,1v6.19a1,1,0,0,0,2,0V35.47A1,1,0,0,0,40.52,34.47Z" id="path32402"/>
<path class="cls-3" d="M37.08,40.33v2.52l7.6,4.44c2.67,1.56,4.87,3.79,5.47,6.82A1.58,1.58,0,0,1,48.6,56H15.4a1.58,1.58,0,0,1-1.55-1.89c.6-3,2.8-5.26,5.47-6.82l7.6-4.44V40.33Z" id="path123162-9-6"/>
<path class="cls-4" d="M26.92,40.33v2a9.1,9.1,0,0,0,10.16,0v-2Z" id="path224867"/>
<path class="cls-3" d="M19.28,26.9a19.45,19.45,0,0,0,1,5c2.11,5.31,6.56,10,11.71,10s9.6-4.71,11.71-10a19.45,19.45,0,0,0,1-5l-8.06-8.27-8.55,3.66Z" id="path61691"/>
<path class="cls-1" d="M33.71,8.94H30.29a12.94,12.94,0,0,0-10.62,8.9L32,18.91l12.35-1.06A13,13,0,0,0,33.71,8.94Z" id="path61671"/>
<path class="cls-5" d="M32,8A2,2,0,0,0,30.29,9L27,14.13l5,1.8,5-1.8L33.71,9A2,2,0,0,0,32,8Z" id="path16506-6"/>
<path class="cls-1" d="M29.09,37.1a13.09,13.09,0,0,1-4.36-4.88c-.44-.91.21-1.33,1.12-.88a14.17,14.17,0,0,0,5.95,1.78,14.17,14.17,0,0,0,5.95-1.78c.91-.46,1.56,0,1.12.88a13.18,13.18,0,0,1-4.36,4.88c-1.35.61-1.73,0-2.71,0S30.43,37.71,29.09,37.1Z" id="path21294-6"/>
<path class="cls-1" d="M28,25.16a3.76,3.76,0,0,0,7.51-.33h0a3.76,3.76,0,0,0-2.25-3.45,2.37,2.37,0,0,0-1.75,0c-.86.22-3.3,2.8-3.3,2.8A2,2,0,0,0,28,25.16Z" id="path44454-0"/>
<path class="cls-6" d="M37,14.13H27l-2.33,3.72,7.29,1,7.28-1.06Z" id="path57099-8"/>
<path class="cls-7" d="M44.93,21.06c0,.24,0,.49,0,.73,0,1.41-.06,3.27-.24,5.11C39.56,26.9,36,23.68,34,21.07h-.62c-1.11,1.39-5.37,5.84-14.14,5.84-.18-1.84-.24-3.7-.24-5.11,0-.24,0-.49,0-.73l12.3-2.25Z" id="path47926"/>
<path class="cls-5" d="M19.66,17.84a12.91,12.91,0,0,0-.6,3.3H44.94a12.76,12.76,0,0,0-.6-3.29H19.66Z" id="path17239-0"/>
<path class="cls-4" d="M23.35,49.87a1,1,0,0,0,0,2h5.1a1.3,1.3,0,0,1,1.12.65,1,1,0,0,0,1.36.37h0a1,1,0,0,0,.36-1.37h0a3.3,3.3,0,0,0-2.85-1.65Z" id="path131588-6-3"/>
<path class="cls-4" d="M35.55,49.87a3.3,3.3,0,0,0-2.85,1.65,1,1,0,0,0,.36,1.37h0a1,1,0,0,0,1.37-.37h0a1.3,1.3,0,0,1,1.12-.65h5.1a1,1,0,0,0,0-2Z" id="path132344-1-6"/>
<path class="cls-4" d="M29.58,44.8a1,1,0,0,0-.77,0,1,1,0,0,0-.53,1.31l1,2.39a1,1,0,0,0,1.85-.78l-1-2.39A1,1,0,0,0,29.58,44.8Z" id="path133885-0"/>
<path class="cls-4" d="M34.42,44.8a1,1,0,0,0-.54.54l-1,2.39a1,1,0,0,0,1.85.78l1-2.39a1,1,0,0,0-.53-1.31A1,1,0,0,0,34.42,44.8Z" id="path133967-6"/>
<path class="cls-7" d="M31.8,23.25A1.74,1.74,0,0,0,30.06,25h0a1.74,1.74,0,1,0,1.74-1.74Z" id="path44983"/>
</g>
</svg>