<?xml version="1.0" ?>
<!-- Uploaded to: SVG Repo, www.svgrepo.com, Generator: SVG Repo Mixer Tools -->
<svg width="800px" height="800px" viewBox="0 0 64 64" xmlns="http://www.w3.org/2000/svg">
<defs>
<style>.cls-1{fill:#f0f4f7;}.cls-2{fill:#e0e9ee;}.cls-3{fill:#d0e1e8;}.cls-4{fill:#617880;}.cls-5{fill:#748a95;}.cls-6{fill:#dd5891;}</style>
</defs>
<g data-name="Grim Skull" id="Grim_Skull">
<path class="cls-1" d="M19.22,41.06c-4.94,4.95-5.48,7.68-5.53,12.29A2.65,2.65,0,0,0,16.34,56H47.66a2.65,2.65,0,0,0,2.65-2.65c-.05-4.61-.59-7.34-5.53-12.29Z" id="path251139-9"/>
<path class="cls-1" d="M17.84,35.73V22.16a14.16,14.16,0,1,1,28.32,0V35.73Z" id="path264010-8"/>
<path class="cls-2" d="M21.4,23.86c-1.12,3.55-3.56,4.95-3.56,11.87a11.14,11.14,0,0,0,1.38,5.33c2,4,6.5,6.35,10.44,9a4.35,4.35,0,0,0,4.68,0c3.94-2.7,8.42-5,10.44-9a11.14,11.14,0,0,0,1.38-5.33c0-6.92-2.44-8.32-3.56-11.87Z" id="path248397-6"/>
<path class="cls-3" d="M22,22.17a22.3,22.3,0,0,0-1.46,7.18c0,6.35,5.16,9.53,11.51,9.53s11.51-3.18,11.51-9.53a22.3,22.3,0,0,0-1.46-7.18Z" id="path127678"/>
<path class="cls-4" d="M29.87,31.67v7.08a17.51,17.51,0,0,0,4.26,0V31.67Z" id="rect262797-9"/>
<path class="cls-5" d="M32,11.29c-4.32,0-8.09,5.42-10,10.88a10.05,10.05,0,0,0,3.32,6.71,4.16,4.16,0,0,1,1.37,2.73v.69a1.82,1.82,0,0,0,1.82,1.83h7.07a1.82,1.82,0,0,0,1.83-1.83v-.69a4.16,4.16,0,0,1,1.37-2.73,10.05,10.05,0,0,0,3.32-6.71C40.09,16.7,36.32,11.29,32,11.29Z" id="path262375-7"/>
<path class="cls-6" d="M30.36,21.92a2.47,2.47,0,1,1-2.46-2.47A2.46,2.46,0,0,1,30.36,21.92Z" id="path263495-2"/>
<path class="cls-6" d="M38.57,21.92a2.47,2.47,0,1,1-2.47-2.47A2.47,2.47,0,0,1,38.57,21.92Z" id="path263600-2"/>
<path class="cls-4" d="M32,24.78a1,1,0,0,0-1,1v1.57a1,1,0,0,0,2,0V25.78A1,1,0,0,0,32,24.78Z" id="path263635"/>
</g>
</svg>