<?xml version="1.0" ?>
<!-- Uploaded to: SVG Repo, www.svgrepo.com, Generator: SVG Repo Mixer Tools -->
<svg width="800px" height="800px" viewBox="0 0 64 64" xmlns="http://www.w3.org/2000/svg">
<defs>
<style>.cls-1{fill:#e0e9ee;}.cls-2{fill:#f5d96d;}.cls-3{fill:#748a95;}.cls-4{fill:#f6e782;}.cls-5{fill:#617880;}.cls-6{fill:#dd5891;}.cls-7{fill:#ebb87f;}.cls-8{fill:#efc89d;}.cls-9{fill:#f0f4f7;}</style>
</defs>
<g data-name="Chinese Vampire" id="Chinese_Vampire">
<path class="cls-1" d="M16,50.62l1.79-23.07H46.17L48,50.62Z" id="path39560-9"/>
<path class="cls-2" d="M22.07,46.33a2.19,2.19,0,1,1,3.75-2.27l.68,3.15-3.07,1.12Z" id="path35667-3"/>
<path class="cls-2" d="M42,46.33a2.19,2.19,0,1,0-3.75-2.27l-1,2.66,3.46,2.22Z" id="path35830-7"/>
<path class="cls-3" d="M43.69,47.37l.54.23a9.14,9.14,0,0,1,5.27,6.58A1.52,1.52,0,0,1,48,56H16a1.52,1.52,0,0,1-1.49-1.82,9.14,9.14,0,0,1,5.27-6.58l.57-.24Z" id="path34183-0"/>
<path class="cls-4" d="M24.46,49.87a2.42,2.42,0,1,1-2.14-3.56,2.45,2.45,0,0,1,1.75.74Z" id="path34270-9"/>
<path class="cls-2" d="M24.74,52.78a2.42,2.42,0,1,1-2.42-2.42A2.42,2.42,0,0,1,24.74,52.78Z" id="circle33095-2"/>
<path class="cls-4" d="M39.55,49.87a2.42,2.42,0,1,0,2.14-3.56,2.45,2.45,0,0,0-1.75.74Z" id="path34588-0"/>
<path class="cls-2" d="M39.27,52.78a2.42,2.42,0,1,0,2.42-2.42A2.42,2.42,0,0,0,39.27,52.78Z" id="path34590-2"/>
<path class="cls-5" d="M28.65,51.09a2.55,2.55,0,0,1-3.69-.4,4.8,4.8,0,0,1,2.14-7.37h9.8A4.8,4.8,0,0,1,39,50.69a2.55,2.55,0,0,1-3.69.4L32,48.22Z" id="path28731-9"/>
<path class="cls-4" d="M29.42,12a2.84,2.84,0,1,1,5.42-1.19A2.72,2.72,0,0,1,34.58,12L32,13.33Z" id="path38445-5"/>
<path class="cls-6" d="M18.8,18.75c2.33-4.08,7.36-6.91,13.2-6.91s10.87,2.83,13.2,6.91L32,23.61Z" id="path38102-9"/>
<path class="cls-7" d="M36.9,40.89v2.43a4.9,4.9,0,0,1-9.8,0V40.89Z" id="rect27794-0"/>
<path class="cls-8" d="M44.49,28c-.67,6.68-6,14.44-12.49,14.44S20.18,34.63,19.51,28L32,20.35Z" id="path25222-1"/>
<path class="cls-3" d="M27.73,27.15c-3.11.2-6.27.56-8.22.8a2.78,2.78,0,0,1-2.73-1.55L15.3,23a2.78,2.78,0,0,1,2.36-4.1,141.21,141.21,0,0,1,28.68,0A2.78,2.78,0,0,1,48.7,23L47.22,26.4A2.78,2.78,0,0,1,44.49,28c-2-.24-5.11-.6-8.22-.8Z" id="rect23101-2"/>
<path class="cls-9" d="M29.84,21.77h4.32a2.1,2.1,0,0,1,2.11,2.11V34.49a2.1,2.1,0,0,1-2.11,2.11H29.84a2.1,2.1,0,0,1-2.11-2.11V23.88A2.1,2.1,0,0,1,29.84,21.77Z" id="rect25964-7"/>
<path class="cls-3" d="M32,24.31a1,1,0,1,0,1,1A1,1,0,0,0,32,24.31Z" id="path26677"/>
<path class="cls-3" d="M32,28.18a1,1,0,1,0,1,1A1,1,0,0,0,32,28.18Z" id="path26825"/>
<path class="cls-3" d="M32,32.05a1,1,0,1,0,1,1A1,1,0,0,0,32,32.05Z" id="path26827"/>
</g>
</svg>