<?xml version="1.0" ?>
<!-- Uploaded to: SVG Repo, www.svgrepo.com, Generator: SVG Repo Mixer Tools -->
<svg width="800px" height="800px" viewBox="0 0 64 64" xmlns="http://www.w3.org/2000/svg">
<defs>
<style>.cls-1{fill:#ebb87f;}.cls-2{fill:#aaddb4;}.cls-3{fill:#92d39d;}.cls-4{fill:#748a95;}.cls-5{fill:#efc89d;}.cls-6{fill:#d0e1e8;}.cls-7{fill:#f0f4f7;}</style>
</defs>
<g id="Glasses">
<path class="cls-1" d="M27.1,39.26v4.06L25,44.56l7,6.56,7-6.56L36.9,43.32V39.26Z" id="path189450-3"/>
<path class="cls-2" d="M25,44.56l-5.21,3c-.44.26-.87.54-1.28.83l-.05,5.11L20.94,56H31l1-.87L33,56H43.06L45,53.54l.53-5.11c-.41-.29-.84-.57-1.28-.83l-5.21-3L37,47.48l-5,1-4.95-1Z" id="path123162-4-0-7"/>
<path class="cls-3" d="M33,48.25l-1,.19-1-.19a.68.68,0,0,0,0,.19V56h2V48.44A1.37,1.37,0,0,0,33,48.25Z" id="path8886-6-7"/>
<path class="cls-4" d="M18.5,48.43a9.44,9.44,0,0,0-4,5.75A1.52,1.52,0,0,0,16,56h5A14.25,14.25,0,0,0,18.5,48.43Zm27,0A14.25,14.25,0,0,0,43.06,56H48a1.52,1.52,0,0,0,1.49-1.82A9.44,9.44,0,0,0,45.5,48.43Z" id="path115119-7-3"/>
<path class="cls-4" d="M25,44.56v3.68A1.62,1.62,0,0,0,27,49.8l5-1.36Zm7,3.88,5,1.36a1.62,1.62,0,0,0,2-1.56V44.56Z" id="path116882-26-6"/>
<path class="cls-5" d="M44.43,25.66a24.26,24.26,0,0,1-1.14,7.06h0c-2,5.13-6.33,9.67-11.29,9.67s-9.25-4.54-11.29-9.67a24.26,24.26,0,0,1-1.14-7.06L32,22.71Z" id="path151531-2"/>
<path class="cls-2" d="M18.72,21.24l2-11.2a2.47,2.47,0,0,1,2.43-2H40.47a2.48,2.48,0,0,1,2.43,2l2,11.2L31.79,23Z" id="rect151936-9"/>
<path class="cls-4" d="M17.13,21.24H46.87a2.22,2.22,0,1,1,0,4.43H17.13a2.22,2.22,0,1,1,0-4.43Z" id="rect151006-9"/>
<path class="cls-6" d="M30,30.28a1,1,0,0,0,0,2h4a1,1,0,1,0,0-2Z" id="path151810"/>
<path class="cls-7" d="M36.6,27.67a3.61,3.61,0,1,0,3.61,3.61A3.63,3.63,0,0,0,36.6,27.67Z" id="path123702"/>
<path class="cls-7" d="M27.4,27.67A3.61,3.61,0,1,0,31,31.28,3.62,3.62,0,0,0,27.4,27.67Z" id="path123640"/>
</g>
</svg>