<?xml version="1.0" ?>
<!-- Uploaded to: SVG Repo, www.svgrepo.com, Generator: SVG Repo Mixer Tools -->
<svg width="800px" height="800px" viewBox="0 0 64 64" xmlns="http://www.w3.org/2000/svg">
<defs>
<style>.cls-1{fill:#f0f4f7;}.cls-2{fill:#d0e1e8;}.cls-3{fill:#ebb87f;}.cls-4{fill:#efc89d;}.cls-5{fill:#e0e9ee;}.cls-6{fill:#748a95;}.cls-7{fill:#617880;}.cls-8{fill:#dd5891;}</style>
</defs>
<g data-name="Knife Head" id="Knife_Head">
<path class="cls-1" d="M39.79,44.9l5.09,2.24a9.6,9.6,0,0,1,5.57,6.94A1.62,1.62,0,0,1,48.87,56H15.08a1.62,1.62,0,0,1-1.58-1.92,9.65,9.65,0,0,1,5.57-6.94l5.09-2.24Z" id="path31217-6-7-6"/>
<path class="cls-2" d="M28.44,50.82a2.68,2.68,0,0,1-3.89-.43,5.05,5.05,0,0,1,2.26-7.77H37.14a5.06,5.06,0,0,1,2.27,7.77,2.69,2.69,0,0,1-3.9.43l-3.53-3Z" id="path28731-9-8-1"/>
<path class="cls-3" d="M37.14,39.05v3.57a5.17,5.17,0,1,1-10.33,0V39.05Z" id="rect27794-0-2-6"/>
<path class="cls-4" d="M19.76,30.54a8.42,8.42,0,0,0,.3.89c2.15,5.41,6.68,10.2,11.92,10.2s9.76-4.79,11.91-10.2a7.28,7.28,0,0,0,.29-.83L36.7,11.68,25.21,23.91Z" id="path235016"/>
<path class="cls-1" d="M47.93,19.75V15.52H42.56l1.2,8.08Z" id="path77704-2"/>
<path class="cls-5" d="M45.08,19.75l-1.67,1.37,1.67,2.48h1.06a1.8,1.8,0,0,0,1.79-1.8V19.75Z" id="path77704-2-3"/>
<path class="cls-6" d="M47.93,15.51H54.7a1.17,1.17,0,0,1,1.17,1.17v2.2a1.17,1.17,0,0,1-1.17,1.17H47.93Z" id="rect81318-0"/>
<path class="cls-7" d="M40,19.68l2.71-6.13A13.19,13.19,0,0,0,37,9l-3.9,2.86L31.92,19l0,.1a44.23,44.23,0,0,0,3.89,5.2L39.68,28a18.91,18.91,0,0,0,4.5,2.64,30.83,30.83,0,0,0,.93-7Z" id="path218995"/>
<path class="cls-6" d="M32,8a13.2,13.2,0,0,0-11.91,7.51l-1.23,8.08a31,31,0,0,0,.92,7C30.82,26,37,9,37,9A12.92,12.92,0,0,0,32,8Z" id="path83783-6"/>
<path class="cls-8" d="M42.25,13.52c-4.7.05-6.38,3.91-6.38,7.25V31.61a1.91,1.91,0,0,0,3.81,0V26.1c0-1.67,1-2.5,2-2.5h3.41c0-.88,0-1.71,0-2.42a13.14,13.14,0,0,0-2.45-7.65Z" id="rect93946-6"/>
<path class="cls-1" d="M23.73,19.75V15.52H9.88a1.75,1.75,0,0,0-1.2.47L9,18.7l4.42,3.07Z" id="rect77514-3"/>
<path class="cls-5" d="M8.68,16a1.74,1.74,0,0,0-.55,1.27,6.34,6.34,0,0,0,6.34,6.34h9.26V19.75H14.47A6.35,6.35,0,0,1,8.68,16Z" id="path89684-4"/>
<path class="cls-8" d="M30.17,34.62a1.67,1.67,0,1,1-3.34,0c0-.92.74-2.85,1.67-2.85S30.17,33.7,30.17,34.62Z" id="path96248-5"/>
<path class="cls-7" d="M23.73,13.7a1,1,0,0,0-1,1v9.71a1,1,0,0,0,2,0V14.7A1,1,0,0,0,23.73,13.7Z" id="path88740"/>
</g>
</svg>