<?xml version="1.0" ?>
<!-- Uploaded to: SVG Repo, www.svgrepo.com, Generator: SVG Repo Mixer Tools -->
<svg width="800px" height="800px" viewBox="0 0 64 64" xmlns="http://www.w3.org/2000/svg">
<defs>
<style>.cls-1{fill:#f0f4f7;}.cls-2{fill:#dd5891;}.cls-3{fill:#d9387c;}</style>
</defs>
<g id="Devil">
<path class="cls-1" d="M22.19,46.19l-5-10.3c-.93-2-2.09-1.85-2.39.29a32.54,32.54,0,0,0-.32,5.34,28,28,0,0,0,1.78,8.76l4.94-.43Z" id="path116892-43"/>
<path class="cls-1" d="M41.81,46.2l5-10.31c.93-2,2.09-1.85,2.39.29a32.54,32.54,0,0,1,.32,5.34,28,28,0,0,1-1.78,8.76l-4.94-.43Z" id="path72041-9-1"/>
<path class="cls-2" d="M27.1,40.89v2.43L19.78,47.6c-2.58,1.51-4.7,3.66-5.28,6.58A1.52,1.52,0,0,0,16,56h6l2-2.28L28.35,56h6.54l4.4-2.28,2,2.28H48a1.52,1.52,0,0,0,1.49-1.82c-.58-2.92-2.7-5.07-5.28-6.58L36.9,43.32V40.89Z" id="path271370"/>
<path class="cls-3" d="M23.61,49.24a1,1,0,1,0,0,2h4.45a1.3,1.3,0,0,1,1.13.65,1,1,0,0,0,1.73-1,3.3,3.3,0,0,0-2.86-1.65Z" id="path131588"/>
<path class="cls-3" d="M35.17,49.24a3.3,3.3,0,0,0-2.85,1.65,1,1,0,0,0,1.73,1,1.3,1.3,0,0,1,1.12-.65h4.64a1,1,0,0,0,0-2Z" id="path132344"/>
<path class="cls-3" d="M27.1,40.89v2A9.25,9.25,0,0,0,32,44.39a9.25,9.25,0,0,0,4.9-1.51v-2Z" id="path230625"/>
<path class="cls-2" d="M41.55,15A12.42,12.42,0,0,1,44.49,23c0,2.73-.19,7.19-1.2,9.71-2,5.13-6.33,9.67-11.29,9.67h0c-5,0-9.25-4.54-11.29-9.67-1-2.52-1.2-7-1.2-9.71a12.42,12.42,0,0,1,2.94-8l3.65-3a12.56,12.56,0,0,1,11.79,0Z" id="path25222-7-2-3-6"/>
<path class="cls-1" d="M28.35,56,24.6,50.24c-1.33-2-3-1.78-3.13.65A14,14,0,0,0,21.94,56Z" id="path116555-4"/>
<path class="cls-1" d="M34.89,56l3.75-5.76c1.33-2,3-1.78,3.12.65A13.83,13.83,0,0,1,41.3,56Z" id="path116374-9"/>
<path class="cls-1" d="M32,38.48c4.66,0,6.83-5.23,6.83-5.23a.69.69,0,0,0-.12-.74.7.7,0,0,0-.73-.17,20.49,20.49,0,0,1-6,1.07,20.49,20.49,0,0,1-6-1.07.57.57,0,0,0-.22,0,.7.7,0,0,0-.58.3.68.68,0,0,0,0,.65S27.34,38.48,32,38.48Z" id="path52715-0-0"/>
<path class="cls-1" d="M29,18.1,24.76,9.2C24,7.52,23,7.61,22.7,9.45a27.37,27.37,0,0,0-.28,4.61c.12,4.11.12,6.64,1.52,8.15C27,25.54,30.88,21.94,29,18.1Z" id="path124199-6"/>
<path class="cls-1" d="M35,18.1l4.28-8.9c.81-1.68,1.81-1.59,2.06.25a27.37,27.37,0,0,1,.28,4.61c-.12,4.11-.12,6.64-1.52,8.15C37,25.54,33.11,21.94,35,18.1Z" id="path125117-8"/>
<path class="cls-3" d="M25,27.89l-2,2a1,1,0,0,0,1.41,1.41l2-2A1,1,0,1,0,25,27.89Z" id="path131233"/>
<path class="cls-3" d="M38.3,27.6a1,1,0,0,0-.7.29,1,1,0,0,0,0,1.41l2,2a1,1,0,0,0,1.41-1.41l-2-2A1,1,0,0,0,38.3,27.6Z" id="path131315"/>
</g>
</svg>