<?xml version="1.0" ?>
<!-- Uploaded to: SVG Repo, www.svgrepo.com, Generator: SVG Repo Mixer Tools -->
<svg width="800px" height="800px" viewBox="0 0 64 64" xmlns="http://www.w3.org/2000/svg">
<defs>
<style>.cls-1{fill:#efc89d;}.cls-2{fill:#aaddb4;}.cls-3{fill:#e5936b;}.cls-4{fill:#f0f4f7;}.cls-5{fill:#ebb87f;}</style>
</defs>
<g data-name="Jack O Lantern" id="Jack_O_Lantern">
<path class="cls-1" d="M36.9,40.51v2.81l7.32,4.28c2.58,1.51,4.7,3.66,5.28,6.58A1.52,1.52,0,0,1,48,56H16a1.52,1.52,0,0,1-1.49-1.82c.58-2.92,2.7-5.07,5.28-6.58l7.32-4.28V40.51Z" id="path8913-3"/>
<path class="cls-2" d="M30.13,18.24V9.87a1.87,1.87,0,1,1,3.74,0v8.37Z" id="path8826-5"/>
<path class="cls-3" d="M32,14.13c-2.56,0-5,.42-6.87,3.26a6,6,0,0,0-3.94-1.62c-4.58,0-8.29,6-8.29,13.41s3.71,13.41,8.29,13.41A5.91,5.91,0,0,0,25.12,41C27,43.81,29.44,42.13,32,42.14s5,1.67,6.88-1.18a5.91,5.91,0,0,0,3.93,1.63c4.58,0,8.29-6,8.29-13.41s-3.71-13.41-8.29-13.41a6,6,0,0,0-3.92,1.62C37,14.54,34.56,14.13,32,14.13Z" id="path3920-1"/>
<path class="cls-4" d="M26.07,31.3a.55.55,0,0,0-.6.52c0,3.68,3.07,6.23,6.7,6.23s6.7-2.55,6.71-6.23a.56.56,0,0,0-.77-.47,14.09,14.09,0,0,1-5.94,1.23,14.07,14.07,0,0,1-5.93-1.23h0A.55.55,0,0,0,26.07,31.3Z" id="path5273"/>
<path class="cls-4" d="M40.08,22.63a.59.59,0,0,0-.26.07h0l-6.16,3.56a.55.55,0,0,0-.2.71,4.09,4.09,0,1,0,7.08-4.08A.53.53,0,0,0,40.08,22.63Z" id="path5271"/>
<path class="cls-4" d="M23.92,22.63a.53.53,0,0,0-.46.26A4.09,4.09,0,0,0,30.54,27a.55.55,0,0,0-.2-.71h0L24.18,22.7A.48.48,0,0,0,23.92,22.63Z" id="path184771-6"/>
<path class="cls-5" d="M25.29,48.44a1,1,0,1,0,0,2h3.16a1.29,1.29,0,0,1,1.12.64,1,1,0,0,0,1.36.37,1,1,0,0,0,.37-1.37,3.31,3.31,0,0,0-2.85-1.64Z" id="path132344-1-6-7-2"/>
<path class="cls-5" d="M35.55,48.44a3.31,3.31,0,0,0-2.85,1.64,1,1,0,1,0,1.73,1h0a1.29,1.29,0,0,1,1.12-.64h3.16a1,1,0,1,0,0-2Z" id="path67681-5"/>
</g>
</svg>