<?xml version="1.0" ?>
<!-- Uploaded to: SVG Repo, www.svgrepo.com, Generator: SVG Repo Mixer Tools -->
<svg width="800px" height="800px" viewBox="0 0 64 64" xmlns="http://www.w3.org/2000/svg">
<defs>
<style>.cls-1{fill:#e0e9ee;}.cls-2{fill:#d0e1e8;}.cls-3{fill:#f0f4f7;}.cls-4{fill:#dd5891;}</style>
</defs>
<g id="Mask">
<path class="cls-1" d="M24.55,44.81l-.69-1.18a2.54,2.54,0,0,0-3.5-.9l-4.19,2.51a2.65,2.65,0,0,0-1,3.56l1,1.78,6.18-.88Z" id="path63663-12"/>
<path class="cls-1" d="M39.45,44.81l.69-1.18a2.54,2.54,0,0,1,3.5-.9l4.19,2.51a2.65,2.65,0,0,1,1,3.56l-1,1.78-6.18-.88Z" id="path66457-9"/>
<path class="cls-1" d="M27.1,36.47v6.85l-2.55,1.49s-2.7,3.47-2.18,5.65S26.71,56,26.71,56H37.29s3.82-3.36,4.34-5.54-2.18-5.65-2.18-5.65L36.9,43.32V36.47Z" id="path123162-1-5"/>
<path class="cls-2" d="M35.55,48.44a3.31,3.31,0,0,0-2.85,1.64,1,1,0,1,0,1.73,1,1.29,1.29,0,0,1,1.12-.64h3.16a1,1,0,1,0,0-2Z" id="path119305"/>
<path class="cls-2" d="M25.29,48.44a1,1,0,1,0,0,2h3.16a1.29,1.29,0,0,1,1.12.64,1,1,0,0,0,1.36.37h0a1,1,0,0,0,.36-1.37,3.31,3.31,0,0,0-2.85-1.64Z" id="path132344-1-6-7"/>
<path class="cls-3" d="M44,29.14a13.85,13.85,0,0,1-.75,2.79C41.25,37.06,37,41.6,32,41.6s-9.25-4.54-11.29-9.67a13.11,13.11,0,0,1-.72-2.8l-.45-7.85a12.51,12.51,0,0,1,9.29-11.15l6.34.06a13.52,13.52,0,0,1,9.21,11.09Z" id="path54293-3"/>
<path class="cls-2" d="M29.92,8h4.16a1.08,1.08,0,0,1,1.09,1.08v1.79A1.08,1.08,0,0,1,34.08,12H29.92a1.08,1.08,0,0,1-1.09-1.08V9.08A1.08,1.08,0,0,1,29.92,8Z" id="rect52049-9"/>
<path class="cls-4" d="M29.46,22.45a2.28,2.28,0,1,1-2.28-2.27A2.28,2.28,0,0,1,29.46,22.45Z" id="path60462-9"/>
<path class="cls-4" d="M39.09,22.45a2.28,2.28,0,1,1-2.27-2.27A2.28,2.28,0,0,1,39.09,22.45Z" id="circle62480-7"/>
<path class="cls-3" d="M39.45,44.81A104,104,0,0,1,37.29,56H48a1.52,1.52,0,0,0,1.49-1.82c-.58-2.92-2.7-5.07-5.28-6.58Z" id="path106342"/>
<path class="cls-3" d="M24.55,44.81,19.78,47.6c-2.58,1.51-4.7,3.66-5.28,6.58A1.52,1.52,0,0,0,16,56H26.71A104,104,0,0,1,24.55,44.81Z" id="path63308-3"/>
<path class="cls-2" d="M18.38,21.28a1.08,1.08,0,0,0-1.09,1.08v5.77a1.08,1.08,0,0,0,1.09,1.08h1.2a1.08,1.08,0,0,0,1.08-1.08V22.36a1.08,1.08,0,0,0-1.08-1.08Z" id="path54437-2"/>
<path class="cls-2" d="M44.42,21.28a1.08,1.08,0,0,0-1.08,1.08v5.77a1.08,1.08,0,0,0,1.08,1.08h1.2a1.08,1.08,0,0,0,1.09-1.08V22.36a1.08,1.08,0,0,0-1.09-1.08Z" id="rect53932-2"/>
<path class="cls-1" d="M29.55,27.16a1,1,0,1,0,1,1A1,1,0,0,0,29.55,27.16Z" id="path59397"/>
<path class="cls-1" d="M34.48,27.16a1,1,0,1,0,1,1A1,1,0,0,0,34.48,27.16Z" id="path59780"/>
<path class="cls-1" d="M29.55,31.07a1,1,0,1,0,1,1A1,1,0,0,0,29.55,31.07Z" id="path59786"/>
<path class="cls-1" d="M34.48,31.07a1,1,0,1,0,1,1A1,1,0,0,0,34.48,31.07Z" id="path59788"/>
<path class="cls-1" d="M29.55,35a1,1,0,1,0,1,1A1,1,0,0,0,29.55,35Z" id="path59798"/>
<path class="cls-1" d="M34.48,35a1,1,0,1,0,1,1A1,1,0,0,0,34.48,35Z" id="path59800"/>
<path class="cls-1" d="M27.1,16.05a1,1,0,1,0,2,0h0a1,1,0,0,0-2,0Z" id="path62488"/>
<path class="cls-1" d="M31,16.05a1,1,0,0,0,1,1h0a1,1,0,0,0,1-1h0a1,1,0,0,0-1-1h0a1,1,0,0,0-1,1Z" id="path62490"/>
<path class="cls-1" d="M34.9,16.05a1,1,0,1,0,2,0h0a1,1,0,0,0-2,0Z" id="path62492"/>
<path class="cls-2" d="M26.58,28a1,1,0,0,0-1.25.67h0a4.83,4.83,0,0,1-1.73,2.51,1,1,0,0,0-.2,1.4h0a1,1,0,0,0,1.4.2,7,7,0,0,0,2.45-3.53A1,1,0,0,0,26.58,28Z" id="path62527"/>
<path class="cls-2" d="M37.45,28a1,1,0,0,0-.67,1.25h0a7,7,0,0,0,2.45,3.53,1,1,0,0,0,1.4-.2h0a1,1,0,0,0-.2-1.4h0a4.83,4.83,0,0,1-1.73-2.51A1,1,0,0,0,37.45,28Z" id="path63035"/>
</g>
</svg>