<?xml version="1.0" ?>
<!-- Uploaded to: SVG Repo, www.svgrepo.com, Generator: SVG Repo Mixer Tools -->
<svg width="800px" height="800px" viewBox="0 0 64 64" xmlns="http://www.w3.org/2000/svg">
<defs>
<style>.cls-1{fill:#748a95;}.cls-2{fill:#617880;}.cls-3{fill:#e0e9ee;}.cls-4{fill:#f0f4f7;}.cls-5{fill:#f6e782;}</style>
</defs>
<g id="Nun">
<path class="cls-1" d="M16.29,50.48V23.71a15.71,15.71,0,0,1,31.42,0V50.48Z" id="path33355-8"/>
<path class="cls-2" d="M43,50.28V25.34H21V50.28Z" id="path32699-0"/>
<path class="cls-2" d="M22.37,46.09,19.78,47.6c-2.58,1.51-4.7,3.66-5.28,6.58A1.52,1.52,0,0,0,16,56H48a1.52,1.52,0,0,0,1.49-1.82c-.58-2.92-2.7-5.07-5.28-6.58l-2.59-1.51Z" id="path123162-7-9"/>
<path class="cls-3" d="M27.1,38.53v4.79l-4.73,2.77A20.5,20.5,0,0,0,32,48.34a20.5,20.5,0,0,0,9.63-2.25L36.9,43.32V38.53Z" id="path36708-9"/>
<path class="cls-4" d="M32,16.41c-5.59,0-10.9,6.07-10.9,12a19.92,19.92,0,0,0,1,5.48c1.8,4.51,5.57,8.51,9.94,8.51s8.14-4,9.94-8.51a19.92,19.92,0,0,0,1-5.48C42.9,22.6,37.59,16.41,32,16.41Z" id="path25222-7-2-6-4"/>
<path class="cls-3" d="M32,14.34a11,11,0,0,0-11,11c0,.87,0,1.94.09,3.06a11,11,0,0,1,21.8,0c.07-1.12.09-2.19.09-3.06A11,11,0,0,0,32,14.34Z" id="path32781-6"/>
<path class="cls-3" d="M24.13,29.92a1,1,0,0,0-.51,1.93l2.21.59a1.47,1.47,0,0,1,1.09,1.43V35a1,1,0,0,0,2,0V33.87a3.49,3.49,0,0,0-2.58-3.36Z" id="path245540-5"/>
<path class="cls-3" d="M39.87,29.92l-2.21.59a3.49,3.49,0,0,0-2.58,3.36V35a1,1,0,0,0,2,0V33.87a1.47,1.47,0,0,1,1.09-1.43l2.21-.59a1,1,0,1,0-.51-1.93Z" id="path246018-3"/>
<path class="cls-5" d="M32,47.34a1,1,0,0,0-1,1v1.14H29.67a1,1,0,0,0,0,2H31V56a1,1,0,0,0,2,0V51.48h1.33a1,1,0,0,0,0-2H33V48.34A1,1,0,0,0,32,47.34Z" id="path36089"/>
</g>
</svg>