<?xml version="1.0" ?>
<!-- Uploaded to: SVG Repo, www.svgrepo.com, Generator: SVG Repo Mixer Tools -->
<svg width="800px" height="800px" viewBox="0 0 64 64" xmlns="http://www.w3.org/2000/svg">
<defs>
<style>.cls-1{fill:#e0e9ee;}.cls-2{fill:#748a95;}.cls-3{fill:#617880;}.cls-4{fill:#f0f4f7;}.cls-5{fill:#d0e1e8;}</style>
</defs>
<g id="Skeleton">
<path class="cls-1" d="M43.29,43.19A17,17,0,0,1,48,53.73,2.17,2.17,0,0,1,45.8,56H33l-1-.63L31,56H18.2A2.17,2.17,0,0,1,16,53.73a17,17,0,0,1,4.74-10.54Z" id="path81477-5"/>
<path class="cls-2" d="M22.36,33a9,9,0,0,0-3.75,7c0,3.25,4.55,4.35,9.92,7.05a9.18,9.18,0,0,0,2.47.89l1-.72,1,.72A9.18,9.18,0,0,0,35.47,47c5.37-2.7,9.92-3.8,9.92-7.05a9,9,0,0,0-3.75-7Z" id="path56511-8-2"/>
<path class="cls-3" d="M32,42.51a1,1,0,0,0-1,1v4.41a5.6,5.6,0,0,0,2,0V43.51A1,1,0,0,0,32,42.51Z" id="path82507"/>
<path class="cls-4" d="M42.23,29a1.87,1.87,0,0,1,.7,3.67l-3.36.9v3.4a2.42,2.42,0,0,1-2.43,2.43H26.86a2.42,2.42,0,0,1-2.43-2.43v-3.4l-3.36-.9A1.87,1.87,0,0,1,21.8,29a13,13,0,1,1,20.43,0Z" id="path81748-5-9"/>
<path class="cls-5" d="M39.09,21.4l-4.26.25a1.33,1.33,0,0,0-1.22,1,3.19,3.19,0,0,0,0,.54,3.49,3.49,0,0,0,7,0,3.6,3.6,0,0,0-.13-.93A1.37,1.37,0,0,0,39.09,21.4Z" id="path182529-9-2-9-4"/>
<path class="cls-5" d="M23.59,22.22a3.6,3.6,0,0,0-.13.93,3.49,3.49,0,0,0,7,0,3.12,3.12,0,0,0,0-.54,1.33,1.33,0,0,0-1.22-1l-4.26-.25A1.37,1.37,0,0,0,23.59,22.22Z" id="path172191-2-1-2-7"/>
<path class="cls-5" d="M33.34,29.42l.91,1.83a1.84,1.84,0,0,1-1.65,2.67H31.4a1.84,1.84,0,0,1-1.65-2.67l.91-1.83A1.49,1.49,0,0,1,33.34,29.42Z" id="rect174019-2-0-2-8"/>
<path class="cls-5" d="M33,56V51.67a1,1,0,0,0-2,0V56Z" id="path82136"/>
</g>
</svg>