<?xml version="1.0" ?>
<!-- Uploaded to: SVG Repo, www.svgrepo.com, Generator: SVG Repo Mixer Tools -->
<svg width="800px" height="800px" viewBox="0 0 64 64" xmlns="http://www.w3.org/2000/svg">
<defs>
<style>.cls-1{fill:#e0e9ee;}.cls-2{fill:#748a95;}.cls-3{fill:#617880;}.cls-4{fill:#efc89d;}.cls-5{fill:#f0f4f7;}.cls-6{fill:#f6e782;}</style>
</defs>
<g id="Witch">
<path class="cls-1" d="M21.1,48.42a15.08,15.08,0,0,0-3.58,5.17c-.52,1.25.61,2.41,2,2.41h25c1.37,0,2.5-1.16,2-2.41a15.08,15.08,0,0,0-3.58-5.17Z" id="path57980-6"/>
<path class="cls-2" d="M33,52.89A9.18,9.18,0,0,0,35.47,52c5.37-2.7,9.92-3.8,9.92-7a9,9,0,0,0-3.75-7H22.36a9,9,0,0,0-3.75,7c0,3.25,4.55,4.35,9.92,7a9.18,9.18,0,0,0,2.47.89l1-.53Z" id="path56511-7"/>
<path class="cls-3" d="M32,46.82a1,1,0,0,0-1,1v5.07a5.6,5.6,0,0,0,2,0V47.82A1,1,0,0,0,32,46.82Z" id="path61228"/>
<path class="cls-4" d="M41.93,35.45A16.47,16.47,0,0,1,41.08,40C39.44,44.17,36,47.82,32,47.82S24.56,44.17,22.92,40a16.47,16.47,0,0,1-.85-4.59L32,32.81Z" id="path41635-0"/>
<path class="cls-5" d="M27.5,39.26a.56.56,0,0,0-.48.53,4.75,4.75,0,0,0,5,4.64,4.75,4.75,0,0,0,5-4.64.57.57,0,0,0-.78-.48,10.57,10.57,0,0,1-8.4,0A.61.61,0,0,0,27.5,39.26Z" id="path185210-8-4"/>
<path class="cls-6" d="M38.09,8a1.08,1.08,0,0,0-.35.1l-4.55,2.06a10.86,10.86,0,0,0-5.36,5.31L22.94,26l9,2.46L41,26,36.24,15.78a3.26,3.26,0,0,1,.56-3.64L39,9.79A1.07,1.07,0,0,0,38.09,8Z" id="rect49460-5"/>
<path class="cls-2" d="M22.94,26l-2.4,5.14,11.46,2,11.45-2L41,26Z" id="path54734-5"/>
<path class="cls-5" d="M34.55,28.54A2.57,2.57,0,1,1,32,26,2.56,2.56,0,0,1,34.55,28.54Z" id="path54838-4"/>
<path class="cls-6" d="M16.53,34a4.32,4.32,0,0,1,4.09-2.9H43.38A4.32,4.32,0,0,1,47.47,34a1.16,1.16,0,0,1-1.22,1.45H17.75A1.16,1.16,0,0,1,16.53,34Z" id="rect40308-61"/>
</g>
</svg>