<?xml version="1.0" ?>
<!-- Uploaded to: SVG Repo, www.svgrepo.com, Generator: SVG Repo Mixer Tools -->
<svg width="800px" height="800px" viewBox="0 0 64 64" xmlns="http://www.w3.org/2000/svg">
<defs>
<style>.cls-1{fill:#aaddb4;}.cls-2{fill:#92d39d;}.cls-3{fill:#f0f4f7;}.cls-4{fill:#748a95;}.cls-5{fill:#e0e9ee;}.cls-6{fill:#f6e782;}</style>
</defs>
<g id="Genie">
<path class="cls-1" d="M37.6,36.26V41.5L46,46.39c2.94,1.72,5.37,4.18,6,7.53A1.75,1.75,0,0,1,50.31,56H13.69A1.75,1.75,0,0,1,12,53.92c.67-3.35,3.1-5.81,6-7.53L26.4,41.5V36.26Z" id="path123162-96-8"/>
<path class="cls-2" d="M26.4,36.26v4.39c1.21,1,2.53,2,4,2l3.38,0c1.41,0,2.66-1,3.82-2V36.26Z" id="path203622"/>
<path class="cls-3" d="M47.09,22.09c0-.2,0-.4,0-.6,0-7.1-6.15-12.92-14-13.45l-.7,1.15L30.9,8a16.16,16.16,0,0,0-7.14,2.14l-.53,1.42L22,11.4a13,13,0,0,0-5,9l.54,1-.54,1a13,13,0,0,0,4.68,8.82H42.38a13.15,13.15,0,0,0,4.42-7.13l-.66-1.39Z" id="path194158"/>
<path class="cls-1" d="M29.81,22.31a11.3,11.3,0,0,1-9,4.23,18.38,18.38,0,0,0,.95,5.06c1.63,4.09,4.84,7.77,8.65,8.6l3.38,0c3.74-.91,6.87-4.54,8.47-8.56a18.38,18.38,0,0,0,1-5.06,11.33,11.33,0,0,1-9-4.23Z" id="path288560-1"/>
<path class="cls-4" d="M32.08,36.29a2.42,2.42,0,0,0-2.41,2.41A5.1,5.1,0,0,0,30.3,41,3.44,3.44,0,0,0,31,42a1.42,1.42,0,0,0,2.11,0,3.44,3.44,0,0,0,.73-1,5.1,5.1,0,0,0,.63-2.27A2.43,2.43,0,0,0,32.08,36.29Z" id="path297783-7"/>
<path class="cls-2" d="M22.1,49.29a1,1,0,0,0,0,2h5.83a1.61,1.61,0,0,1,1.41.82,1,1,0,0,0,1.37.36h0a1,1,0,0,0,.36-1.36,3.62,3.62,0,0,0-3.14-1.82Z" id="path131588-6-3-7-2-1"/>
<path class="cls-2" d="M36.07,49.29a3.62,3.62,0,0,0-3.14,1.82,1,1,0,0,0,.36,1.36,1,1,0,0,0,1.37-.36h0a1.62,1.62,0,0,1,1.41-.82H41.9a1,1,0,0,0,0-2Z" id="path132344-1-6-8-9-5"/>
<path class="cls-2" d="M29.18,43.48a1,1,0,0,0-.77,0,1,1,0,0,0-.53,1.31h0L29,47.53a1,1,0,0,0,1.31.53h0a1,1,0,0,0,.53-1.31h0L29.72,44A1,1,0,0,0,29.18,43.48Z" id="path133885-0-6-3-9"/>
<path class="cls-2" d="M34.82,43.48a1,1,0,0,0-.54.53l-1.16,2.74a1,1,0,0,0,.53,1.31h0A1,1,0,0,0,35,47.53h0l1.16-2.73a1,1,0,0,0-.53-1.32h0A1,1,0,0,0,34.82,43.48Z" id="path133967-6-8-9-8"/>
<path class="cls-5" d="M32,8c-.37,0-.74,0-1.1,0l.2.4h0A39.1,39.1,0,0,0,46.52,24.06l.09,0,.19.07a12.11,12.11,0,0,0,.29-2.08A37.47,37.47,0,0,1,33.16,8C32.77,8,32.39,8,32,8Zm-8.24,2.19A14.65,14.65,0,0,0,22,11.4a24.18,24.18,0,0,0,3,4.83,32.23,32.23,0,0,1-8,4.18c0,.35-.06.71-.06,1.08s0,.66.05,1a.78.78,0,0,0,.26,0,35.17,35.17,0,0,0,9-4.67,27,27,0,0,0,3,2.84l.17.11,1.42.74a1,1,0,1,0,.93-1.77L30.39,19a22.58,22.58,0,0,1-6.6-8.5Z" id="path193174"/>
<path class="cls-4" d="M29.34,30.33l-2.22,2a1,1,0,0,0-.34.75v2.29a1,1,0,0,0,2,0V33.49l1.88-1.66a1,1,0,0,0,.09-1.41h0A1,1,0,0,0,29.34,30.33Z" id="path297411"/>
<path class="cls-4" d="M34.66,30.33a1,1,0,0,0-1.32,1.5h0l1.88,1.66v1.84a1,1,0,0,0,2,0V33a1,1,0,0,0-.34-.75Z" id="path297493"/>
<path class="cls-6" d="M32,17.65a2.18,2.18,0,0,1,2.19,2.18v2.49a2.19,2.19,0,0,1-4.38,0V19.83A2.18,2.18,0,0,1,32,17.65Z" id="rect288987-7"/>
</g>
</svg>