<?xml version="1.0" ?>
<!-- Uploaded to: SVG Repo, www.svgrepo.com, Generator: SVG Repo Mixer Tools -->
<svg width="800px" height="800px" viewBox="0 0 64 64" xmlns="http://www.w3.org/2000/svg">
<defs>
<style>.cls-1{fill:#e0e9ee;}.cls-2{fill:#617880;}.cls-3{fill:#748a95;}.cls-4{fill:#f0f4f7;}.cls-5{fill:#d0e1e8;}.cls-6{fill:#efc89d;}.cls-7{fill:#ebb87f;}</style>
</defs>
<g id="Executioner">
<path class="cls-1" d="M26.27,46.34C23.71,47.84,21.59,50,21,52.9a1.53,1.53,0,0,0,1.5,1.82H37.85l1.87-1.37,3.2,1.37H54.49A1.52,1.52,0,0,0,56,52.9c-.57-2.92-2.7-5.07-5.27-6.57Z" id="path25222-7-2-37-5"/>
<path class="cls-2" d="M31.66,32.84H31.3V43.38l-5,2.95s2.29,1.93,8.21,2.57l5.21.19c8-.23,11-2.76,11-2.76l-7.33-4.28V39.61Z" id="path181675-4"/>
<path class="cls-3" d="M26.12,25.63C26,24.22,26,22.85,26,21.76a12.48,12.48,0,0,1,25,0c0,2.73-.19,7.18-1.19,9.7-2,5.12-6.33,9.66-11.29,9.66h0a8.81,8.81,0,0,1-4-1l-5.92-5.65Z" id="path25222-7-2-4-2"/>
<path class="cls-4" d="M23.33,29.57l-.71-6.08L17.83,20a11.79,11.79,0,0,1-6.36,2.51s-.55,6.94,2.21,11.72c2,3.54,8.05,7.62,8.05,7.62A41.66,41.66,0,0,1,23.33,29.57Z" id="path175324-2"/>
<path class="cls-5" d="M42.92,54.72Q31.48,34.91,20,15.1a2.19,2.19,0,1,0-3.8,2.19L37.85,54.72Z" id="rect175081-7"/>
<path class="cls-2" d="M19,22l3.8-2.2,3.1,5.36-3.81,2.2Z" id="rect175264-7"/>
<path class="cls-5" d="M11.47,22.55h-.4c-1.91,0-3.35.64-3,2.54a32.71,32.71,0,0,0,4.08,11,32.89,32.89,0,0,0,7.5,9c1.49,1.21,2.44.46,2.24-1.45-.06-.61-.09-1.21-.12-1.82h0a34,34,0,0,1-6.11-7.8A32.39,32.39,0,0,1,11.47,22.55Z" id="path176968-7"/>
<path class="cls-6" d="M38.47,31.81a2.58,2.58,0,0,0,2.59-2.58,2.06,2.06,0,0,1,2.06-2.06,3.72,3.72,0,1,0,0-7.44H33.83a3.72,3.72,0,1,0,0,7.44,2.06,2.06,0,0,1,2.06,2.06A2.57,2.57,0,0,0,38.47,31.81Z" id="rect173345-8"/>
<path class="cls-7" d="M33.46,22.29a1,1,0,0,0-1.21.72h0A1,1,0,0,0,33,24.23l2.67.68a1,1,0,0,0,1.22-.72h0A1,1,0,0,0,36.14,23Z" id="path190809"/>
<path class="cls-7" d="M43.48,22.29,40.81,23a1,1,0,0,0,.49,1.94L44,24.23a1,1,0,1,0-.49-1.94Z" id="path191047"/>
</g>
</svg>