<?xml version="1.0" ?>
<!-- Uploaded to: SVG Repo, www.svgrepo.com, Generator: SVG Repo Mixer Tools -->
<svg width="800px" height="800px" viewBox="0 0 64 64" xmlns="http://www.w3.org/2000/svg">
<defs>
<style>.cls-1{fill:#e0e9ee;}.cls-2{fill:#f0f4f7;}.cls-3{fill:#748a95;}.cls-4{fill:#d0e1e8;}</style>
</defs>
<g id="Monster">
<path class="cls-1" d="M37.08,39v3.9l7.6,4.44c2.67,1.56,4.87,3.79,5.47,6.82A1.58,1.58,0,0,1,48.6,56H15.4a1.58,1.58,0,0,1-1.55-1.89c.6-3,2.8-5.26,5.47-6.82l7.6-4.44V38.92Z" id="path163502-1"/>
<path class="cls-2" d="M48.89,24.89A16.89,16.89,0,1,1,32,8,16.89,16.89,0,0,1,48.89,24.89Z" id="path160168-7"/>
<path class="cls-1" d="M38.43,20.57A6.43,6.43,0,1,1,32,14.15,6.43,6.43,0,0,1,38.43,20.57Z" id="path160387-0"/>
<path class="cls-3" d="M34.18,20.57A2.18,2.18,0,1,1,32,18.4,2.19,2.19,0,0,1,34.18,20.57Z" id="path160932-9"/>
<path class="cls-4" d="M32,31.38a16.8,16.8,0,0,1-7.09-1.48.38.38,0,0,0-.55.33c0,4.21,3.47,7.09,7.64,7.09s7.64-2.88,7.64-7.09a.4.4,0,0,0-.55-.33A16.8,16.8,0,0,1,32,31.38Z" id="path185210-3-2"/>
<path class="cls-4" d="M23.35,49.87a1,1,0,0,0,0,2h5.1a1.3,1.3,0,0,1,1.12.65,1,1,0,0,0,1.36.37h0a1,1,0,0,0,.36-1.37h0a3.3,3.3,0,0,0-2.85-1.65Z" id="path131588-6-3-7"/>
<path class="cls-4" d="M35.55,49.87a3.3,3.3,0,0,0-2.85,1.65,1,1,0,0,0,.36,1.37h0a1,1,0,0,0,1.37-.37h0a1.3,1.3,0,0,1,1.12-.65h5.1a1,1,0,0,0,0-2Z" id="path132344-1-6-8"/>
<path class="cls-4" d="M29.58,44.8a1,1,0,0,0-.77,0,1,1,0,0,0-.53,1.31l1,2.39a1,1,0,0,0,1.85-.78l-1-2.39A1,1,0,0,0,29.58,44.8Z" id="path133885-0-6"/>
<path class="cls-4" d="M34.42,44.8a1,1,0,0,0-.54.54l-1,2.39a1,1,0,0,0,1.85.78l1-2.39a1,1,0,0,0-.53-1.31A1,1,0,0,0,34.42,44.8Z" id="path133967-6-8"/>
</g>
</svg>