<?xml version="1.0" ?><!-- Uploaded to: SVG Repo, www.svgrepo.com, Generator: SVG Repo Mixer Tools -->
<svg width="800px" height="800px" viewBox="0 0 64 64" id="Samurai" xmlns="http://www.w3.org/2000/svg"><defs><style>.cls-1{fill:#d0e1e8;}.cls-2{fill:#f5d96d;}.cls-3{fill:#627981;}.cls-4{fill:#f0f4f7;}.cls-5{fill:#e0e9ee;}.cls-6{fill:#748a95;}.cls-7{fill:#f6e782;}.cls-8{fill:#e5936b;}</style></defs><path class="cls-1" d="M20.64,44.05l2.59,3.85,9.87,2.68,10.26-6.52,3.75-10L45.7,21.29S26.39,15.41,26,15.58,16,28.3,16,28.3Z" id="path399966"/><path class="cls-2" d="M25.1,45.64l-.64-1.1a2.36,2.36,0,0,0-3.24-.83L17.33,46a2.45,2.45,0,0,0-.88,3.3L17.37,51Z" id="path63663-1-1"/><path class="cls-2" d="M38.9,45.64l.64-1.1a2.36,2.36,0,0,1,3.24-.83L46.67,46a2.46,2.46,0,0,1,.88,3.3L46.63,51Z" id="path66457-7-4"/><path class="cls-3" d="M19.82,48.76a8.91,8.91,0,0,0-4,5.55A1.41,1.41,0,0,0,17.17,56H46.83a1.41,1.41,0,0,0,1.38-1.69,8.91,8.91,0,0,0-4-5.55Z" id="path123162-59-4"/><path class="cls-3" d="M27.46,41v3.28L22,47.46l10,5.27,10-5.27-5.48-3.2V41Z" id="path419336"/><path class="cls-4" d="M32,10.25a11.8,11.8,0,0,0-3,.39l-6.35,1.91L11.31,19.18A3,3,0,0,0,10,22.43a8.28,8.28,0,0,0,4.28,5.33L18,31.43l2.56-2.77,6.71.28,0,1.3H41.52l2-1.58,3.62,3,2.66-3.89A8.28,8.28,0,0,0,54,22.43a3,3,0,0,0-1.35-3.25L41.35,12.55,35,10.64A11.94,11.94,0,0,0,32,10.25Z" id="path317000-1"/><path class="cls-5" d="M49.76,27.76a14.31,14.31,0,0,1-6.28.9l-2,1.58h1.82l0,13.82,7-3.32a2.18,2.18,0,0,0,1.22-2.35Z" id="path228440"/><path class="cls-5" d="M14.24,27.76,12.38,38.39a2.18,2.18,0,0,0,1.22,2.35l7,3.32,0-13.82h6.6l0-1.3-6.71-.28A14.31,14.31,0,0,1,14.24,27.76Z" id="path321657-7"/><path class="cls-6" d="M43.52,27.75S40.21,22.69,32,22.69s-11.51,5.06-11.52,5.06a23,23,0,0,0,1.06,6.69c1.89,4.75,5.86,9,10.46,9s8.57-4.2,10.46-9A23,23,0,0,0,43.52,27.75Z" id="path388529"/><path class="cls-7" d="M25.44,22.69a18.19,18.19,0,0,0-4,1.2,1.86,1.86,0,0,0-1,1.53c0,.27,0,.53,0,.68,0,.68,0,.81.05,1.65,0,0,3.31-2.24,11.52-2.24s11.51,2.24,11.52,2.24c0-.84,0-1,0-1.65,0-.15,0-.41,0-.68a1.89,1.89,0,0,0-1-1.54,18.89,18.89,0,0,0-4-1.19Z" id="path309503-1"/><path class="cls-8" d="M21.32,9.49c1.43,1.8,1.67,4.46,1.66,7a9,9,0,0,0,18,0c0-2.54.23-5.2,1.66-7,.82-1,.79-1.49-.54-1.49h-4.4A2.75,2.75,0,0,0,35,10.75v1a2.36,2.36,0,0,0,.62,1.41,4.9,4.9,0,1,1-7.24,0A2.36,2.36,0,0,0,29,11.79v-1A2.75,2.75,0,0,0,26.26,8h-4.4C20.53,8,20.5,8.45,21.32,9.49Z" id="path311149-4"/><path class="cls-7" d="M22,47.46l-1.3.76c-.29.17-.58.35-.86.54A45.46,45.46,0,0,1,21.72,56H42.28a45.46,45.46,0,0,1,1.9-7.24c-.28-.19-.57-.37-.86-.54L42,47.46,32,51Z" id="path319473-5"/><path class="cls-4" d="M13,32a1,1,0,0,0-.61,1.27,8.14,8.14,0,0,0,1.81,2.8A7.3,7.3,0,0,0,20.83,38a1,1,0,1,0-.37-2,5,5,0,0,1-4.88-1.37,6.1,6.1,0,0,1-1.34-2A1,1,0,0,0,13,32Z" id="path316918"/><path class="cls-4" d="M51,32a1,1,0,0,0-1.28.62h0a6.1,6.1,0,0,1-1.34,2,5,5,0,0,1-4.88,1.37,1,1,0,1,0-.37,2,7.3,7.3,0,0,0,6.67-1.92,8.14,8.14,0,0,0,1.81-2.8A1,1,0,0,0,51,32Z" id="path317004"/></svg>