<?xml version="1.0" ?>
<!-- Uploaded to: SVG Repo, www.svgrepo.com, Generator: SVG Repo Mixer Tools -->
<svg width="800px" height="800px" viewBox="0 0 64 64" xmlns="http://www.w3.org/2000/svg">
<defs>
<style>.cls-1{fill:#748a95;}.cls-2{fill:#e0e9ee;}.cls-3{fill:#efc89d;}.cls-4{fill:#dd5891;}.cls-5{fill:#d9387c;}.cls-6{fill:#ebb87f;}.cls-7{fill:#f0f4f7;}</style>
</defs>
<g data-name="Zombie" id="Zombie-2">
<path class="cls-1" d="M16.9,48.69a9.44,9.44,0,0,0-3.37,5.39A1.61,1.61,0,0,0,15.11,56H48.89a1.61,1.61,0,0,0,1.58-1.92,9.44,9.44,0,0,0-3.37-5.39Z" id="path417232"/>
<path class="cls-2" d="M20.2,46.5l-1.1.64a15,15,0,0,0-2.2,1.55,16,16,0,0,0,3.78,2.13,2.8,2.8,0,0,1,1.45,1.59l.08.26a.91.91,0,0,0,1.18.6l1.65-.6a4.86,4.86,0,0,1,2-.19,35.79,35.79,0,0,0,5,.33c8.79,0,13.4-2.79,15.1-4.12a15,15,0,0,0-2.2-1.55l-1.1-.64Z" id="path115589-3"/>
<path class="cls-3" d="M26.83,37.93v4.69L20.2,46.5a25.46,25.46,0,0,0,23.6,0l-6.63-3.88V37.93Z" id="path123162-8-7"/>
<path class="cls-4" d="M44.09,26.14c.15-1.68.19-3.37.19-4.66a12.37,12.37,0,0,0-10-12.13l-3.17,3.1,0,8.07L34.88,28Z" id="path107627-9"/>
<path class="cls-5" d="M39,14a1,1,0,0,0-.82.46A3.18,3.18,0,0,0,38,17.3l-.15.09c-.85.5-1.54,1-1.54,1A1,1,0,0,0,37.42,20s.63-.45,1.39-.9a8.35,8.35,0,0,1,1.94-.84,1,1,0,0,0,1-1,1,1,0,0,0-1-1,3.63,3.63,0,0,0-.94.16,1.23,1.23,0,0,1,.15-1,1,1,0,0,0-.3-1.38h0A1,1,0,0,0,39,14Z" id="path109468"/>
<path class="cls-6" d="M26.83,37.93v4.12a9.22,9.22,0,0,0,10.34,0V37.93Z" id="path244352"/>
<path class="cls-3" d="M23.41,37c2.31,2.74,5.31,4.61,8.59,4.61,5.24,0,9.76-4.79,11.92-10.2a16,16,0,0,0,.85-3.56,2.7,2.7,0,0,0-1.39-2.35,3.46,3.46,0,0,1-1-1A6.58,6.58,0,0,0,40,22a7.13,7.13,0,0,1-4.12-6.45,6.65,6.65,0,0,1,.06-.89,5,5,0,0,0-1-3.21,3.53,3.53,0,0,1-.59-2A1.51,1.51,0,0,0,32.84,8L32,8A13.19,13.19,0,0,0,18.81,21.18a43.05,43.05,0,0,0,.72,8.37l3.71,2.52Z" id="path25222-7-2-47-5"/>
<path class="cls-7" d="M23.16,22.76a3.71,3.71,0,0,0,7.41,0Z" id="path110699-7"/>
<path class="cls-4" d="M21,29.27a4.3,4.3,0,0,0-1.51.28,12,12,0,0,0,.55,1.88A20.21,20.21,0,0,0,23.41,37,4.24,4.24,0,0,0,21,29.27Z" id="path112763-6"/>
<path class="cls-6" d="M41,28.35l-2.21.59a3.49,3.49,0,0,0-2.58,3.36v1.16a1,1,0,1,0,2,0V32.3a1.48,1.48,0,0,1,1.1-1.43l2.21-.59A1,1,0,1,0,41,28.35Z" id="path246018-3-4"/>
<path class="cls-6" d="M22.85,21.76a1,1,0,0,0,0,2h8a1,1,0,0,0,0-2Z" id="path110993"/>
<path class="cls-7" d="M29,11.43a1,1,0,0,0-.7,1.71l.35.36-1,1-.36-.36a1,1,0,0,0-.71-.29,1,1,0,0,0-.7.29,1,1,0,0,0,0,1.42l.36.35-1,1L25,16.48a1,1,0,0,0-1.41,1.41l.36.36-.34.34a1,1,0,0,0,0,1.42A1,1,0,0,0,25,20l.34-.35.36.36a1,1,0,0,0,1.42-1.41h0l-.35-.36,1-1,.36.35a1,1,0,1,0,1.41-1.41l-.36-.36,1-1,.35.36a1,1,0,1,0,1.42-1.42l-.36-.35.34-.34a1,1,0,0,0,0-1.42,1,1,0,0,0-.71-.29,1,1,0,0,0-.7.29l-.34.34-.36-.36A1,1,0,0,0,29,11.43Z" id="path111494"/>
<path class="cls-6" d="M30.12,35.16a1,1,0,0,0,0,2h3.36a1,1,0,0,0,0-2Z" id="path121790"/>
</g>
</svg>