<?xml version="1.0" encoding="utf-8"?>
<!-- Generator: Adobe Illustrator 25.0.1, SVG Export Plug-In . SVG Version: 6.00 Build 0)  -->
<svg version="1.0" id="katman_1" xmlns="http://www.w3.org/2000/svg" xmlns:xlink="http://www.w3.org/1999/xlink" x="0px" y="0px"
	 viewBox="0 0 560 400" style="enable-background:new 0 0 560 400;" xml:space="preserve">
<style type="text/css">
	.st0{fill:#E51636;}
	.st1{fill:#656263;}
</style>
<g>
	<g>
		<path class="st0" d="M190.4,159.5H159c-1.5,0-3,0.9-3.8,2.2l-5.3,8.7c0,0,31.6,0,31.6,0c2,0.1,3.6,2,3.6,4.3c0,0,0,16.6,0,16.6
			h-23.7v-4.8c0-0.9,0.7-1.7,1.5-1.7h16.6v-6.2c0-1.5-0.8-2.4-2-2.4h-23c-2.8,0-5.1,2.6-5.1,5.7v15.2c0,0.1,0,0.2,0.1,0.2
			c0.3,2.3,2.1,3.9,4.2,3.9h44.8v-32.8C198.4,163.5,194.8,159.5,190.4,159.5"/>
		<path class="st0" d="M476.5,159.5h-31.4c-1.6,0-3,0.9-3.8,2.2l-5.3,8.7c0,0,31.7,0,31.7,0c2,0.1,3.6,2,3.6,4.3c0,0,0,16.6,0,16.6
			h-23.7v-4.8c0-0.9,0.7-1.7,1.5-1.7h16.6v-6.2c0-1.5-0.8-2.4-2-2.4h-23c-2.8,0-5.1,2.6-5.1,5.7v15.2c0,0.1,0,0.2,0.1,0.2
			c0.3,2.3,2.1,3.9,4.2,3.9h44.8v-32.8C484.6,163.5,481,159.5,476.5,159.5"/>
		<path class="st0" d="M377.6,144.3v15.2v31.4h-19.7c-1.4,0-2.3-1.4-2.3-2.5v-13.8c0-2.4,1.7-4.3,3.8-4.3h10c1.5,0,3-1,3.6-2.1
			l4.6-8.7c0,0-27.6,0-27.6,0c-4.4,0-8.1,4-8.1,9c0,0,0,0.1,0,0.1c0,0,0,23.4,0,25.3c0,4.8,3.5,7.5,6.6,7.5h42.8v-57.1H377.6z"/>
		<path class="st0" d="M405.9,159.5c-3.4,0-5.6,2.9-5.6,6.1v35.8H414v-26.7c0-2.4,1.5-4.4,3.7-4.4h10.1c1.5-0.1,2.7-1.1,3.5-2.4
			c0-0.1,5.3-8.5,5.3-8.5H405.9z"/>
		<path class="st0" d="M263.9,173.1v28.2h13.6V160c0,0-6.3,4.4-10.8,7.5C265,168.7,263.9,170.8,263.9,173.1 M263.9,144.2h13.6v10.5
			l-13.6,10.1V144.2z"/>
		<path class="st0" d="M131.4,144.3H66v57.1h13.6v-43.8h14.5c1.4,0,2.5,1.3,2.5,2.8h0v40.9h13.6v-40.9c0-1.6,1.1-2.9,2.5-2.9
			c0,0,0,0,0,0h10.7c2.1,0,3.7,1.9,3.7,4.2v39.6h13.6v-46.6C140.7,149,136.5,144.3,131.4,144.3"/>
		<path class="st0" d="M325,159.5c-0.1,0-38.6,0-38.6,0v41.8h13.7v-31h15.6c2.1,0,3.8,1.9,3.8,4.3h0v26.7h13.6v-32.8
			C333.1,163.5,329.5,159.5,325,159.5"/>
		<path class="st0" d="M254.9,168.5c0-5-3.6-9-8.1-9c0,0-0.1,0-0.1,0H229c-1.6,0-2.4,0.9-3.2,2.3c0,0.1-5.3,8.6-5.3,8.6h17.2
			c2,0.1,3.7,2,3.7,4.3c0,0,0,26.7,0,26.7h13.6L254.9,168.5z M206.9,144.3h13.6v57.1h-13.6V144.3z"/>
	</g>
	<path class="st1" d="M412.3,225.1c0-1.4-0.2-2.6-0.7-3.6c-0.5-1-1.1-1.7-1.9-2.3c-0.8-0.6-1.7-1-2.7-1.2c-1-0.2-2-0.4-3.1-0.4
		c-1.1,0-2.1,0-3.2,0c-1.1,0-2.1,0-3.2,0l-1.9,16.9c1.1,0.1,2.2,0.2,3.2,0.3c1,0.1,2.1,0.1,3.2,0.1c3.3,0,5.8-0.8,7.6-2.5
		C411.4,230.8,412.3,228.3,412.3,225.1 M417,252.8c0,0.9-0.4,1.6-1.2,2c-0.8,0.5-2.2,0.7-4.1,0.7c-0.5,0-0.9-0.2-1.3-0.4
		c-0.3-0.3-0.6-0.6-0.8-1.1l-6.9-15.9c-0.2,0.1-0.5,0.1-0.9,0.1h-0.8c-1,0-2,0-2.8-0.1c-0.8-0.1-1.7-0.2-2.8-0.4l-2,17.2
		c-0.2,0.1-0.5,0.2-0.9,0.2c-0.4,0.1-0.8,0.1-1.3,0.1c-0.8,0-1.4-0.2-1.7-0.5c-0.3-0.3-0.5-0.9-0.5-1.6c0-0.3,0.1-0.9,0.2-1.8
		c0.1-1,0.2-2.2,0.4-3.6c0.1-1.4,0.3-3.1,0.5-4.9c0.2-1.8,0.4-3.7,0.6-5.8c0.4-3.3,0.8-6.5,1.2-9.7c0.4-3.2,0.8-6.4,1.2-9.7
		l-4.6-0.2c-0.2-0.3-0.3-0.6-0.3-1.1c0-1.7,1.2-2.5,3.5-2.5h13.2c1.4,0,2.9,0.2,4.3,0.5c1.4,0.3,2.7,0.9,3.8,1.7
		c1.1,0.8,2,1.9,2.7,3.2c0.7,1.3,1,3,1,5c0,3.7-0.9,6.5-2.6,8.6c-1.7,2.1-4.1,3.6-7.2,4.6l6.5,14.2l3.1-0.3
		C416.8,251.7,417,252.2,417,252.8"/>
	<path class="st1" d="M432.6,215.4c0,1-0.3,1.8-0.9,2.4c-0.6,0.6-1.4,0.9-2.5,0.9c-0.8,0-1.5-0.2-2-0.6c-0.5-0.4-0.8-1.1-0.8-2
		c0-1,0.3-1.8,0.9-2.4c0.6-0.6,1.5-0.9,2.6-0.9c1,0,1.6,0.2,2,0.7C432.4,214,432.6,214.6,432.6,215.4 M433.8,252.8
		c0,0.8-0.5,1.4-1.4,1.9c-0.9,0.5-2.4,0.8-4.6,0.8c-1.3,0-2.3-0.3-3-0.9c-0.7-0.6-1-1.7-1-3.2c0-1.1,0.1-2.8,0.4-5l2.4-19l-4.5,0.2
		c-0.3-0.3-0.5-0.7-0.5-1.3c0-0.9,0.5-1.6,1.4-2c0.9-0.4,2.5-0.6,4.8-0.6c1.4,0,2.3,0.2,2.7,0.6c0.4,0.4,0.6,1.2,0.4,2.4l-1.5,12.4
		c-0.3,2.7-0.6,5-0.9,7c-0.2,2-0.4,3.3-0.4,3.9c0,0.8,0.1,1.2,0.4,1.4c0.2,0.2,0.8,0.3,1.7,0.3c0.3,0,0.8-0.1,1.4-0.2
		c0.6-0.1,1.1-0.3,1.4-0.4C433.6,251.3,433.8,251.9,433.8,252.8"/>
	<path class="st1" d="M458.8,226.6c0,0.8-0.1,1.3-0.4,1.6c-0.3,0.4-0.7,0.6-1.2,0.9c-1-0.9-2-1.4-3.2-1.7c-1.1-0.3-2.4-0.4-3.9-0.4
		c-2.1,0-3.6,0.5-4.7,1.5c-1.1,1-1.6,2.1-1.6,3.4c0,0.8,0.1,1.5,0.3,2c0.2,0.6,0.6,1.1,1.1,1.6c0.5,0.5,1.2,0.9,2.2,1.4
		c0.9,0.5,2.1,1,3.5,1.6c1.3,0.6,2.3,1.1,3.2,1.7c0.8,0.5,1.5,1.1,2,1.7c0.5,0.6,0.8,1.3,1,2c0.2,0.7,0.3,1.5,0.3,2.4
		c0,1.1-0.2,2.2-0.6,3.4c-0.4,1.1-1,2.1-1.9,3c-0.8,0.9-1.9,1.6-3.2,2.1c-1.3,0.5-2.8,0.8-4.6,0.8c-0.7,0-1.6,0-2.8-0.1
		c-1.2-0.1-2.3-0.2-3.5-0.5c-1.2-0.3-2.2-0.7-3-1.3c-0.9-0.6-1.3-1.4-1.3-2.5c0-0.8,0.2-1.3,0.6-1.8c0.4-0.4,1-0.8,1.6-1
		c1,1.3,2.3,2.2,4,2.8c1.7,0.6,3.2,0.8,4.7,0.8c1.8,0,3.2-0.4,4.2-1.3c1-0.9,1.5-2.1,1.5-3.5c0-1.2-0.4-2.2-1.2-3
		c-0.8-0.8-2.3-1.7-4.6-2.6c-1.4-0.5-2.6-1.1-3.7-1.7c-1-0.6-1.8-1.2-2.4-1.9c-0.6-0.7-1-1.5-1.3-2.4c-0.3-0.9-0.4-2-0.4-3.2
		c0-1.3,0.3-2.6,0.8-3.7c0.6-1.1,1.3-2.1,2.3-2.9c1-0.8,2.1-1.5,3.5-2c1.4-0.5,2.8-0.7,4.5-0.7c2.5,0,4.4,0.3,5.8,1
		C458.1,224.7,458.8,225.5,458.8,226.6"/>
	<path class="st1" d="M480.8,231.2c0-1.4-0.4-2.6-1.2-3.4c-0.8-0.8-2.2-1.2-4.2-1.2c-0.9,0-1.9,0.2-2.9,0.5c-1,0.3-2,0.9-2.9,1.6
		c-0.9,0.8-1.7,1.8-2.5,3c-0.7,1.3-1.3,2.9-1.7,4.8c0.8,0.2,1.8,0.3,3,0.4c1.2,0.1,2.3,0.1,3.3,0.1c3.3,0,5.6-0.5,6.9-1.5
		C480.2,234.5,480.8,233,480.8,231.2 M484.7,230.6c0,6.4-4.2,9.6-12.4,9.6c-1.1,0-2.3,0-3.4-0.1c-1.2-0.1-2.4-0.2-3.6-0.4
		c-0.1,0.3-0.1,0.6-0.1,1v0.8c0,7,2.5,10.4,7.6,10.4c1.6,0,3.2-0.2,4.7-0.6c1.6-0.4,3.1-1,4.7-1.8c0.6,0.5,0.9,1.1,0.9,1.8
		c0,1.1-0.8,2.1-2.5,3c-1.7,0.9-4.4,1.4-8.2,1.4c-7.6,0-11.4-4.4-11.4-13.3c0-2.9,0.3-5.5,1-7.9c0.7-2.4,1.6-4.5,2.9-6.2
		c1.3-1.7,2.9-3,4.8-4c1.9-0.9,4.1-1.4,6.7-1.4c1.6,0,3,0.2,4,0.6c1.1,0.4,1.9,0.9,2.6,1.6c0.7,0.7,1.1,1.5,1.4,2.4
		C484.5,228.5,484.7,229.5,484.7,230.6"/>
	<path class="st1" d="M494,251.5c0,1.2-0.3,2.1-1,2.7c-0.7,0.6-1.6,1-2.8,1c-0.9,0-1.6-0.2-2.2-0.7c-0.6-0.5-0.9-1.2-0.9-2.3
		c0-1.1,0.3-2,1-2.6c0.7-0.7,1.6-1,2.9-1c1,0,1.8,0.3,2.3,0.8C493.8,249.9,494,250.6,494,251.5"/>
</g>
</svg>
