<svg id="Layer_1" data-name="Layer 1" xmlns="http://www.w3.org/2000/svg" viewBox="0 0 443.97 232.03" xmlns:xlink="http://www.w3.org/1999/xlink">
 <defs>
  <style>
   .cls-1{fill:#fff;}.cls-2{fill:#0075dd;}
  </style>
 </defs>
 <rect class="cls-1" x="191.36" y="9.15" width="68.03" height="108.88">
 </rect>
 <path class="cls-2" d="M211.65,0A55.55,55.55,0,0,0,156.1,55.56v76.21h76.21a55.56,55.56,0,0,0,55.56-55.55V0Zm45,23.38a18.2,18.2,0,0,1-18.2,18.21H218.93V57.21H245.3V75.49H219.06v37.65H197.45V18.63h21.48V35.77A18.2,18.2,0,0,1,237.1,18.63h19.58Z">
 </path>
 <path d="M41.29,181v49.36H54.18v-27c0-1.53,0-6.19,1.89-8.4A10,10,0,0,1,64,191.59l.54,0V179.39l-.45,0c-3.81-.35-7.42,1.1-8.9,2.66-.27.27-.52.51-.76.73a16.15,16.15,0,0,0-1.29,1.33V181Z">
 </path>
 <path d="M171.13,230.33V203.22c0-7.36,3.41-11.63,9.37-11.71a8.17,8.17,0,0,1,6.06,2.33c2.05,2,3.14,5.21,3.14,9.22v27.27h12.64V199.58c0-10.81-7.33-19.25-17.44-20.07-5.61-.51-10.23.93-13.74,4.27l-.11.12V164.63H158.4l.08,65.7Z">
 </path>
 <path d="M242.06,194.42l-.4-.14.42-.26c5.15-3.29,6.83-10,5.8-14.6-2-9.54-9.58-14.79-21.35-14.79H209l.09,65.7H227.5c13.64,0,22.09-5.82,24.43-16.82C253.38,206.69,249.38,196.86,242.06,194.42ZM222,177.27h5.65c2.18,0,7.29.54,7.51,5.5a5.75,5.75,0,0,1-1.52,4.35c-1.94,2-5.3,2.42-7.77,2.42H222Zm15.36,37.31c-1.92,2.06-5.56,3.1-10.84,3.1H222.1V202H229c4.38,0,9.61,1.89,9.93,7.22A6.69,6.69,0,0,1,237.37,214.58Z">
 </path>
 <path d="M298.69,187.07a25.59,25.59,0,0,0-18.45-7.48,26.23,26.23,0,0,0-.32,52.44h.58a25.8,25.8,0,0,0,18.14-7.51,26,26,0,0,0,.05-37.45ZM281,219.7a13.16,13.16,0,0,1-9.65-3.83A14.1,14.1,0,0,1,267,205.81,13.71,13.71,0,0,1,280.26,192h.29a13.68,13.68,0,0,1,13.6,13.43A13.94,13.94,0,0,1,281,219.7Z">
 </path>
 <path d="M353.94,187.07a25.55,25.55,0,0,0-18.45-7.48,26.23,26.23,0,0,0-.32,52.44h.58a25.78,25.78,0,0,0,18.14-7.51,26,26,0,0,0,.05-37.45Zm-8.24,28.22a13.39,13.39,0,0,1-9.49,4.41,13.18,13.18,0,0,1-9.65-3.83,14.1,14.1,0,0,1-4.31-10.06A13.71,13.71,0,0,1,335.51,192h.29a13.68,13.68,0,0,1,13.6,13.43A13.92,13.92,0,0,1,345.7,215.29Z">
 </path>
 <polygon points="377.62 207.96 378.73 206.99 379.72 206.99 394.03 230.57 407.77 230.57 388.25 198.29 407.55 180.88 390.27 180.88 377.75 192.14 377.62 192.14 377.62 164.39 365.5 164.39 365.5 230.57 377.62 230.57 377.62 207.96">
 </polygon>
 <path d="M444,215.58c0-10.5-8.55-13.21-15.42-15.38l-.15.48h0l.15-.48c-4.33-1.37-8.07-2.55-8.07-5.33,0-1.91,1.59-3.1,4.16-3.1a6.25,6.25,0,0,1,4.17,1.49l.53.53,8.44-8.32-.55-.53a16.83,16.83,0,0,0-12.27-4.7c-10.12,0-16.65,5.87-16.65,14.95,0,10.83,8.34,13,15.05,14.79,4.71,1.24,8.44,2.22,8.44,5.6,0,2.9-2.73,4.92-6.62,4.92s-6.3-2-6.3-5.13v-.75h-12.5v.75c0,9.65,7.91,16.66,18.8,16.66S444,225.11,444,215.58Z">
 </path>
 <polygon points="12.9 177.61 12.9 191.93 34.25 191.93 34.25 204.56 12.99 204.56 12.99 230.33 0 230.33 0 164.62 35.56 164.62 35.56 177.61 12.9 177.61">
 </polygon>
 <path d="M116.28,205.93c0-16.15-9-26.18-23.58-26.18-14.85,0-25.64,10.56-25.64,25.1,0,15.35,10.88,26.94,25.32,26.94a27.85,27.85,0,0,0,20.29-8.61l.36-.38-9-7.94-.33.39a14.37,14.37,0,0,1-11.31,5.35c-6.72,0-11.68-4.33-12.95-11.29l-.19-1h37Zm-36-8.52.36-.66c2.23-3.82,6.31-5.92,11.48-5.92,5.47,0,9.66,2.5,11.13,6.58Z">
 </path>
 <path d="M140,200.2c-4.33-1.37-8.07-2.55-8.07-5.33,0-1.91,1.6-3.1,4.17-3.1a6.25,6.25,0,0,1,4.17,1.49l.52.53,8.44-8.32-.55-.53a16.79,16.79,0,0,0-12.26-4.7c-10.12,0-16.66,5.87-16.66,14.95,0,10.83,8.35,13,15.05,14.79,4.72,1.24,8.44,2.22,8.44,5.6,0,2.89-2.72,4.91-6.62,4.91s-6.3-2-6.3-5.12v-.75H117.8v.75c0,9.65,7.9,16.66,18.79,16.66s18.79-6.92,18.79-16.45C155.38,205.07,146.83,202.37,140,200.2Z">
 </path>
</svg>