<?xml version="1.0" ?>
<!-- Uploaded to: SVG Repo, www.svgrepo.com, Generator: SVG Repo Mixer Tools -->
<svg width="800px" height="800px" viewBox="0 0 64 64" xmlns="http://www.w3.org/2000/svg">
<g id="a"/>
<g id="b"/>
<g id="c"/>
<g id="d"/>
<g id="e">
<path d="M50.45,30.58l-21.53-2.49,3.08,30.87c.22,.01,.42-.09,.55-.26l17.65-27.27c.16-.25,.25-.55,.25-.85h0Z" fill="#feb87e" id="f"/>
<path d="M32,58.96V28.03l-18.45,2.55c0,.3,.09,.6,.26,.85l17.65,27.27c.13,.17,.33,.27,.55,.26h0Z" fill="#fdc99c" id="g"/>
<path d="M44.02,20.5H19.98c-.32,.14-.59,.37-.78,.66l-5.41,8.56c-.16,.26-.25,.55-.25,.86H50.45c0-.3-.08-.6-.24-.86l-5.41-8.56c-.19-.29-.46-.52-.78-.66h0Z" fill="#62d9fa" id="h"/>
<path d="M42.28,20.31l-9.65-1.96-10.91,1.96h-.97c-.27,.01-.53,.08-.77,.2l12.02,10.07,12.02-10.07c-.24-.12-.51-.19-.78-.2h-.97Z" fill="#0acffb" id="i"/>
<path d="M33.7,5.89l-3.72,1.91-1.35,3.98-1.6,1.86,6.67,2.45,5.63-2.45c-.14-.28-.29-.56-.46-.82l-4.45-6.26c-.19-.27-.44-.5-.72-.66h0Z" fill="#0acffb" id="j"/>
<path d="M39.33,13.64h-13.77c-.61,0-1.17,.37-1.41,.93l-2.43,5.73h20.56l-2.43-5.73c-.16-.32-.33-.63-.52-.93Z" fill="#62d9fa" id="k"/>
<path d="M29.38,5.01c-.52-.08-.98,.33-.96,.85l.21,5.92,5.07-5.89c-.26-.16-.56-.27-.86-.32l-3.46-.56Z" fill="#00bff8" id="l"/>
<path d="M33.7,5.89l-5.19,2.52,.12,3.37,5.07-5.89Z" fill="#00aee2" id="m"/>
<path d="M39.33,13.64l-10.7-1.86-1.6,1.86h12.3Z" fill="#00bff8" id="n"/>
<path d="M21.72,20.31l19.42-2.69,1.14,2.69H21.72Z" fill="#0acffb" id="o"/>
<path d="M45.65,20.63c-.52-.83-1.42-1.32-2.4-1.32h-.31l-2.17-5.12c-.29-.68-.66-1.34-1.09-1.95l-4.45-6.26c-.53-.74-1.34-1.25-2.24-1.4l-3.46-.56c-1-.16-1.94,.52-2.1,1.52-.02,.12-.03,.25-.02,.36l.2,5.52-1.05,1.22h-1.01c-1.02,0-1.93,.6-2.33,1.54l-2.17,5.12h-.3c-.98,0-1.88,.49-2.4,1.32l-5.41,8.56c-.54,.85-.53,1.94,.02,2.79l17.65,27.28c.24,.37,.61,.62,1.04,.72,.12,.02,.23,.04,.35,.04,.32,0,.63-.09,.9-.27,.19-.12,.36-.29,.49-.49l17.65-27.27c.55-.84,.55-1.94,.02-2.79l-5.41-8.56Zm-23.16,.68h19.02l-9.51,7.97-9.51-7.97Zm21.53,.5l4.91,7.77h-14.18l9.27-7.77Zm-6.51-9.17h-8.31l4.55-5.29,3.76,5.29Zm-5.6-6.21l-2.38,2.76-.12-3.16,2.49,.4Zm-6.84,8.53c.08-.2,.27-.32,.49-.32h13.19c.05,.11,.13,.21,.18,.32l1.84,4.34H23.23l1.84-4.34Zm-5.09,6.85l9.27,7.77H15.07l4.91-7.77Zm-4.89,9.77h15.91v24.59L15.09,31.58Zm17.91,24.59V31.58h15.91l-15.91,24.59Z"/>
</g>
<g id="p"/>
<g id="q"/>
<g id="r"/>
<g id="s"/>
<g id="t"/>
<g id="u"/>
<g id="v"/>
<g id="w"/>
<g id="x"/>
<g id="y"/>
<g id="a`"/>
<g id="aa"/>
<g id="ab"/>
<g id="ac"/>
<g id="ad"/>
<g id="ae"/>
<g id="af"/>
<g id="ag"/>
<g id="ah"/>
<g id="ai"/>
<g id="aj"/>
<g id="ak"/>
<g id="al"/>
<g id="am"/>
<g id="an"/>
<g id="ao"/>
<g id="ap"/>
<g id="aq"/>
<g id="ar"/>
<g id="as"/>
<g id="at"/>
<g id="au"/>
<g id="av"/>
<g id="aw"/>
<g id="ax"/>
<g id="ay"/>
<g id="b`"/>
<g id="ba"/>
<g id="bb"/>
<g id="bc"/>
<g id="bd"/>
<g id="be"/>
<g id="bf"/>
<g id="bg"/>
<g id="bh"/>
</svg>