<?xml version="1.0" ?>
<!-- Uploaded to: SVG Repo, www.svgrepo.com, Generator: SVG Repo Mixer Tools -->
<svg width="800px" height="800px" viewBox="0 0 64 64" xmlns="http://www.w3.org/2000/svg">
<g id="a"/>
<g id="b"/>
<g id="c"/>
<g id="d"/>
<g id="e"/>
<g id="f"/>
<g id="g"/>
<g id="h"/>
<g id="i"/>
<g id="j"/>
<g id="k"/>
<g id="l"/>
<g id="m"/>
<g id="n"/>
<g id="o"/>
<g id="p"/>
<g id="q"/>
<g id="r"/>
<g id="s"/>
<g id="t"/>
<g id="u"/>
<g id="v"/>
<g id="w"/>
<g id="x"/>
<g id="y"/>
<g id="a`">
<path d="M6.9,26.09l3.49-2.32v-3.71h0l-3.96-.77c-.9-.18-1.66,.69-1.35,1.56l1.83,5.24Z" fill="#f0f4f6" id="aa"/>
<path d="M13.93,44.89l7.09-10.9,.04-11.85-10.68-2.07-3.48,6.03,6.13,17.52c.18,.51,.5,.95,.9,1.28h0Z" fill="#9dacb9" id="ab"/>
<path d="M58.47,30.37s-.07,0-.11,.01l-8.9,1.99-.6,4.43,4.59,1.28,5.55-6.61s0-1.09-.53-1.11h0Z" fill="#758797" id="ac"/>
<path d="M36.62,25.15l-6.5,1.51-14.02,11.3-2.17,6.93c.51,.42,1.16,.68,1.86,.68h29.39c1.31,0,3.35-1.63,3.35-1.63l4.91-5.86-3.99-5.71-2.64-3.78c-.76-1.09-1.92-1.84-3.22-2.09l-6.97-1.35Z" fill="#8598ab" id="ad"/>
<path d="M31.94,18.43c-.28,0-.57,.04-.84,.13l-10.04,3.57-4.96,15.83,12.94-11.32,3.45-8.12c-.18-.05-.37-.09-.56-.09h0Z" fill="#a8b8c6" id="ae"/>
<path d="M32.5,18.52l-16.4,19.44,20.52-12.81-2.66-5.43c-.3-.62-.85-1.03-1.46-1.21h0Z" fill="#758797" id="af"/>
<path d="M53.45,38.08l.46-6.7-4.45,1,3.99,5.71Z" fill="#5e7081" id="ag"/>
<path d="M60,31.47c0-.38-.08-1.31-.7-1.8-.33-.26-.74-.35-1.16-.26l-8.24,1.85-2.26-3.23c-.92-1.31-2.28-2.2-3.85-2.5l-6.48-1.26-2.44-4.98c-.74-1.52-2.5-2.24-4.1-1.67h0l-9.78,3.48-14.37-2.79c-.78-.15-1.55,.12-2.07,.72-.52,.6-.67,1.41-.41,2.16l7.96,22.76c.55,1.57,2.04,2.63,3.7,2.63h29.39c1.58,0,3.59-1.54,3.98-1.85,.05-.04,.1-.09,.14-.14l10.46-12.46c.15-.18,.24-.41,.23-.65Zm-24.67-6.69l-14.37,8.97,11.74-13.92c.13,.11,.29,.18,.36,.34l2.26,4.61Zm-13.47-1.87l8.04-2.86-11.36,13.47,3.32-10.61Zm-15.82-2.57s.08-.07,.14-.07c.01,0,.03,0,.04,0l2.59,.5-1.69,2.93-1.11-3.18c-.02-.07-.01-.13,.04-.19Zm1.95,5.86l2.9-5.02,8.88,1.72-6.1,19.49L8,26.2Zm39.84,17.02c-.73,.57-2.02,1.36-2.65,1.36H15.79c-.24,0-.43-.13-.65-.21l1.8-5.75,19.87-12.41,6.58,1.28c1.06,.21,1.98,.8,2.6,1.69l2.64,3.78,3.55,5.08-4.36,5.19Zm5.69-6.77l-2.39-3.42,6.47-1.45-4.08,4.87Z"/>
</g>
<g id="ah"/>
<g id="ai"/>
<g id="aj"/>
<g id="ak"/>
<g id="al"/>
<g id="am"/>
<g id="an"/>
<g id="ao"/>
<g id="ap"/>
<g id="aq"/>
<g id="ar"/>
<g id="as"/>
<g id="at"/>
<g id="au"/>
<g id="av"/>
<g id="aw"/>
<g id="ax"/>
<g id="ay"/>
<g id="b`"/>
<g id="ba"/>
<g id="bb"/>
<g id="bc"/>
<g id="bd"/>
<g id="be"/>
</svg>