<?xml version="1.0" ?>
<!-- Uploaded to: SVG Repo, www.svgrepo.com, Generator: SVG Repo Mixer Tools -->
<svg width="800px" height="800px" viewBox="0 0 64 64" xmlns="http://www.w3.org/2000/svg">
<g id="a"/>
<g id="b"/>
<g id="c"/>
<g id="d"/>
<g id="e"/>
<g id="f"/>
<g id="g"/>
<g id="h"/>
<g id="i"/>
<g id="j"/>
<g id="k"/>
<g id="l"/>
<g id="m"/>
<g id="n"/>
<g id="o"/>
<g id="p"/>
<g id="q"/>
<g id="r"/>
<g id="s"/>
<g id="t"/>
<g id="u"/>
<g id="v">
<path d="M32,20.6l-2.22,6.81,1.87,7.52,16.14-1.98c-.64,0-1.65-.89-1.65-.89l-14.14-11.46Z" fill="#f8c228" id="w"/>
<path d="M16.21,32.95l13.39,3.59,2.41-3.59-1.2-4.16-7.55-4.03-5.39,7.3s-1.01,.89-1.66,.89h0Z" fill="#fdda5c" id="x"/>
<path d="M30.35,15.55c-.25,.08-.48,.24-.64,.45l-6.46,8.75,8.75,8.19V16.76c0-.86-.83-1.46-1.65-1.21h0Z" fill="#fce87b" id="y"/>
<path d="M5.57,32.95c-.44,0-.71,.55-.48,.97l7.5,13.62c.19,.34,.46,.6,.78,.77H50.64c.31-.17,.59-.43,.78-.77l7.5-13.62c.23-.42-.04-.97-.48-.97H5.57Z" fill="#fce87b" id="a`"/>
<path d="M50.64,48.31l-18.64-15.36-18.64,15.36c.24,.13,.5,.2,.77,.2H49.86c.27,0,.54-.07,.78-.2h0Z" fill="#fdda5c" id="aa"/>
<path d="M30.73,14.49c-.71,0-1.4,.34-1.82,.92h0l-11.79,15.96c-.33,.28-.78,.55-.92,.57H5.57c-.55,0-1.05,.29-1.33,.77-.3,.51-.31,1.16-.02,1.68l7.5,13.62c.51,.92,1.44,1.49,2.43,1.49H49.86c.99,0,1.92-.57,2.43-1.49l7.5-13.62c.29-.52,.28-1.16-.03-1.68-.29-.48-.79-.77-1.33-.77h-10.61c-.18-.03-.68-.34-1.05-.67l-13.77-11.15v-3.37c0-1.25-1.02-2.27-2.26-2.27Zm1.27,19.75l16.1,13.27H15.9l16.1-13.27Zm1-11.54l11.41,9.24h-11.41v-9.24Zm-2.48-6.1c.14-.19,.48-.07,.48,.16v13.88l-6.41-6,5.94-8.04Zm-7.13,9.66l6.08,5.69h-10.28l4.2-5.69Zm-17.14,7.69H29.21l-15.8,13.02-7.17-13.02Zm51.51,0l-7.17,13.02-15.8-13.02h22.97Z"/>
</g>
<g id="ab"/>
<g id="ac"/>
<g id="ad"/>
<g id="ae"/>
<g id="af"/>
<g id="ag"/>
<g id="ah"/>
<g id="ai"/>
<g id="aj"/>
<g id="ak"/>
<g id="al"/>
<g id="am"/>
<g id="an"/>
<g id="ao"/>
<g id="ap"/>
<g id="aq"/>
<g id="ar"/>
<g id="as"/>
<g id="at"/>
<g id="au"/>
<g id="av"/>
<g id="aw"/>
<g id="ax"/>
<g id="ay"/>
<g id="b`"/>
<g id="ba"/>
<g id="bb"/>
<g id="bc"/>
</svg>