<?xml version="1.0" encoding="UTF-8"?><svg id="Layer_1" xmlns="http://www.w3.org/2000/svg" xmlns:xlink="http://www.w3.org/1999/xlink" viewBox="0 0 567.38 550.72"><defs><style>.cls-1{fill:none;}.cls-2{fill:#e41e26;}.cls-3{clip-path:url(#clippath);}</style><clipPath id="clippath"><path class="cls-1" d="M307.75,191.48l.57.15.07-.17-.65.02ZM314.58,188.81l-3.31,1.38-1.36.11-.67-.2-.36.28-.47,1.08,2.42-.04.33-.56,11.4-.89,15.59-.89-14-.79-1.14,1.02-1.93-.12-.24-.33-1.18-.41-2.23,1.18h-1.37l-.34-2.01-1.13,1.2ZM309.57,151.51l-.91.79-2.29.23-.23.77-2.38.12s-29.61,11.74-64.91,18.22c.91-1.01,1.71-2.13,1.71-2.13,0,0-13.1,3.13-16.29,6.16-.91-1.24-1.82-2.13-1.82-2.13l-.8,1.01.8,1.23-.46,1.12-1.36.55h-.91l-.34-.89-3.63-.13-.35,1.91-1.02.67-2.74,1.8-1.02.77-2.96-.22-.57-1.69s-9.8,8.17-18.33,10.74c9.68-10.07,29.95-24.6,29.95-24.6l-.12-1.22-1.59-.11s-37.12,24.14-42.47,28.84c3.65-3.7,7.05-6.38,7.05-6.38,0,0-15.82,7.94-18.67,15.42-.57-.99-.8-1.45-.8-1.45,0,0,3.3-2.23,4.9-7.59,3.32-5.92,8.43-11.75,8.43-11.75l-8.43,8.84-2.73.56-3.64,5.71.58.45-4.79,5.13,1.02,1.68-.44,1.91-1.15-1.11-1.25-1.91-15.38,16.09-.8-1.45-11.26,9.95,5.92-1.57-16.51,15.99s22.89,10.06,60.8-7.38c37.17-17.08,78.57-5.01,78.57-5.01,0,0-85.74,11.72-104.87,78.44-17.9,62.4,52.26,91.21,86.76,91.55l44.86-.33s-5.79-.68-11.6-2.7c15.13-1,21.4-3.01,21.4-3.01,0,0-.69.11-5.23-1.34,26.64-2.36,33.7-6.59,33.7-6.59l-2.73-.67v-.56s19.92-1.89,55-18.88c-19.13,7.82-40.78,9.39-40.78,9.39l3.08-3.47s2.05.56,3.3.12c6.26-3.24,6.37-7.94,6.37-7.94,0,0,.12,3.68,2.85.78,3.18-2.81.69-5.14.69-5.14l-1.82-.78s3.53-3.69,7.18-6.48c-2.05-.9-1.82-4.04-1.82-4.04l2.15-.22.57-1.35-1.7-.67-1.26-1.11,1.94-.56s12.29-17.88,31.2-33.87c-7.86,3.92-10.15,5.14-10.15,5.14,0,0,3.51-5.9,30.63-21.79,18.25-10.7,22.21-20.02,22.21-20.02,0,0-13.4,19.76-35.18,19.23-23.25-.55-40.51,2.55-40.66,2.57.12-.02,10.74-2.04,16.75-7.93,0,0-20.79,7.14-33.14-1.01-28.13-18.56-74.01-10.4-74.01-10.4,0,0-43.23,5.41-52.15,38.24-6.38,23.48,20.95,29.93,20.95,29.93,0,0,17.46,4.08,23.91-12.27,3.87-9.85-4.56-15.66-4.56-15.66,0,0-14.18-13.71-3.64-25.25,11.84-12.97,47.83-4.49,47.83-4.49,0,0,48.74,11.86,16.85,68.19-20.72,35.77-65.82,32.2-65.82,32.2,0,0-45.78,2-51.47-45.16-1.6-14.09.45-21.7.45-21.7l2.16-1.81-.94-.67v-.92s.09-.93,1.89-.93.93-2.01.93-2.01l-1.96-.16s-.09-2.09,1.87-3.68c-.94-.26-.84-.76-.84-.76,0,0,.93-2.17,2.89-1.35.17,3.11,2.14.93,2.14.93,0,0-2.05.33-.77-4.2,2.14-4.52,8.97-8.46,8.97-8.46,0,0-1.03-.09-1.96-1.09,6.24-2.01,8.7-7.13,8.7-7.13l-1.03-.25s-.76,1.09-2.38.84c.33-1.26.85-1.85.85-1.85l-.85-.16v-1.85l-2.22-.16s-1.63-1.01.08-2.77c4.45-.84,4.11-5.28,4.11-5.28l1.62.5,1.11-1.68.68-1.85.85-.92,2.65,1.09,1.54.76,3.85,3.27-3.16-5.47.68-1.42.42-1.34-2.13-.25-.09-1,2.22-.84.17-.67.68-.25.34-2.01,3.33-.24,1.54-3.36s17.62-24.34,59.29-21.96c31.42,1.79,39.42,20.47,76.98,17.88,22.76-1.56,28.91.89,28.91.89,0,0-11.6-8.05-23.9-8.71,12.52-.68,22.31-2.02,22.31-2.02l-1.59-.84-1.54-.83-1.19-.51-1.54,1.01-2.05.17-3.24-1.35-1.54-.5-1.53.16-1.54,1.85-2.22-.33-6.32-1.18,6.83-.34,2.04-1.34,1.55-.83h2.04l.18,1.17,3.41.34,1.53,1,2.23-1,2.22.66,1.71-.66,1.7-.84,1.2-.33,1.88.49,3.07-2.68,1.54-.16,1.01,1.68.87.68-.87,1.33h1.72l.51-2.17-.34-.85,2.39-.67h2.57l.34,1.68.86-1.01.17-1.17,2.23-1.5,8.53-4.53,2.9-.84,1.37-1,6.32-.68s8.72-2.68,15.89-11.73c0,0-28.19,17.93-70.2,8.21-29.28-6.79-33.98-13.91-33.98-13.91l2.22-.84-3.41-1-1.71-.83-3.08.33-2.39-1.84h-4.61l-.68-1.18-4.61-.34-.52-.84,9.23-.17,2.05,1.86,2.22-.35,2.73,1.35,1.2.17,1.53,1.01h3.08l1.02,1.33-.86,1.01,1.54,1.68,2.05.5v-2.18l-1.2-1.34,1.2-1.84h-1.72l-.84-.68-.35-3.03-2.04-.5s-31.44-18.78-57.39-8.04c0,0,1.53-1.85,4.38-2.85.8-.11.23-.9.23-.9l.68-.33,3.64.22-.35-.78,5.24-.11-.34-1.12,2.97-.05-3.09-.85-1.29,1.65-1.04-1.15-1.55-.5.24,1.77-1.83-.41-2.28.66-1.59.33-1.83-.33-.11-1.01-2.04,1.34-1.15-.22-1.6-.22-.22-2.91,2.84-1.68s-23.11-.89-44.18,7.16c-21.06,8.05-23.23,11.74-46.68,16.55,18.1-5.71,28.69-12.75,34.16-16.1,15.14-8.49,46.91-25.48,57.73-31.74.23-1.23.57-1.23.57-1.23l1.26.78,1.71-1.9,1.82-.44v-.68l2.84-.11.11-1.01,1.38.12.34-1.01,2.39-.67-2.83-.34-.12-.78,2.96-.23.35-.89,1.47.77,2.5-2.68,2.06-.33,1.14-1.9-2.62.22Z"/></clipPath></defs><g class="cls-3"><polygon class="cls-2" points="0 323.35 348.32 550.72 567.38 227.38 219.06 0 0 323.35"/></g><path class="cls-2" d="M193.15,467.8h-4l-.74-10.41h-.17c-3.91,8.17-11.75,11.62-20.15,11.62-18.37,0-27.51-14.18-27.51-29.81s9.14-29.81,27.51-29.81c12.24,0,22.2,6.49,24.33,18.99h-5.56c-.73-6.57-7.67-14.35-18.77-14.35-15.43,0-21.96,12.66-21.96,25.16s6.54,25.16,21.96,25.16c12.89,0,20.4-8.89,20.15-20.99h-19.83v-4.66h24.73v29.09Z"/><path class="cls-2" d="M202.36,439.12c.49-9.7,7.43-13.86,17.06-13.86,7.43,0,15.51,2.24,15.51,13.3v21.96c0,1.93.98,3.04,3.01,3.04.58,0,1.23-.16,1.63-.32v4.25c-1.14.24-1.95.31-3.35.31-5.22,0-6.03-2.88-6.03-7.21h-.17c-3.59,5.37-7.26,8.41-15.34,8.41s-14.12-3.76-14.12-12.1c0-11.62,11.51-12.01,22.61-13.3,4.24-.48,6.61-1.04,6.61-5.62,0-6.8-4.98-8.49-11.02-8.49-6.37,0-11.11,2.88-11.26,9.61h-5.15ZM229.79,445.21h-.16c-.66,1.2-2.94,1.6-4.33,1.84-8.74,1.52-19.59,1.44-19.59,9.54,0,5.05,4.57,8.17,9.39,8.17,7.83,0,14.77-4.89,14.69-12.98v-6.57Z"/><path class="cls-2" d="M245.21,426.46h4.74v9.69h.16c2.62-6.65,8.33-10.58,15.92-10.26v5.05c-9.31-.49-15.67,6.25-15.67,14.82v22.03h-5.14v-41.34Z"/><path class="cls-2" d="M272.48,448.49c.08,7.37,3.99,16.27,13.87,16.27,7.51,0,11.59-4.33,13.22-10.58h5.14c-2.2,9.38-7.76,14.83-18.37,14.83-13.39,0-19.02-10.09-19.02-21.87,0-10.9,5.63-21.88,19.02-21.88s18.94,11.62,18.53,23.24h-32.4ZM299.73,444.24c-.24-7.61-5.06-14.74-13.38-14.74s-13.06,7.21-13.87,14.74h27.25Z"/><path class="cls-2" d="M311.73,426.46h5.14v7.13h.16c1.87-4.97,7.51-8.34,13.47-8.34,11.83,0,15.42,6.09,15.42,15.95v26.6h-5.14v-25.8c0-7.13-2.37-12.49-10.7-12.49s-13.06,6.09-13.22,14.18v24.11h-5.14v-41.34Z"/><path class="cls-2" d="M355.14,439.12c.49-9.7,7.43-13.86,17.06-13.86,7.43,0,15.51,2.24,15.51,13.3v21.96c0,1.93.98,3.04,3.02,3.04.57,0,1.22-.16,1.63-.32v4.25c-1.14.24-1.96.31-3.34.31-5.22,0-6.04-2.88-6.04-7.21h-.17c-3.59,5.37-7.26,8.41-15.35,8.41s-14.12-3.76-14.12-12.1c0-11.62,11.51-12.01,22.61-13.3,4.25-.48,6.61-1.04,6.61-5.62,0-6.8-4.98-8.49-11.02-8.49-6.37,0-11.1,2.88-11.26,9.61h-5.15ZM382.57,445.21h-.16c-.64,1.2-2.94,1.6-4.32,1.84-8.74,1.52-19.59,1.44-19.59,9.54,0,5.05,4.57,8.17,9.39,8.17,7.84,0,14.77-4.89,14.69-12.98v-6.57Z"/></svg>