<svg xmlns="http://www.w3.org/2000/svg" viewBox="0 0 24 24" fill="#2D8CFF"><path d="M23.977 5.416a.603.603 0 0 0-.355-.355c-.274-.11-.662-.024-.893.205l-2.023 2.023a14.035 14.035 0 0 0-2.498-1.44 13.576 13.576 0 0 0-2.822-1.015 12.458 12.458 0 0 0-5.726.005 13.576 13.576 0 0 0-2.823 1.015 14.035 14.035 0 0 0-2.498 1.44l-2.023-2.023c-.231-.229-.619-.315-.893-.205a.603.603 0 0 0-.355.355c-.11.274-.024.662.205.893l2.337 2.337a13.96 13.96 0 0 0-1.44 2.498 13.576 13.576 0 0 0-1.015 2.822 12.458 12.458 0 0 0 .005 5.726 13.576 13.576 0 0 0 1.015 2.823 14.035 14.035 0 0 0 1.44 2.498l-2.337 2.337c-.229.231-.315.619-.205.893a.603.603 0 0 0 .355.355c.274.11.662.024.893-.205l2.023-2.023a14.035 14.035 0 0 0 2.498 1.44 13.576 13.576 0 0 0 2.822 1.015 12.458 12.458 0 0 0 5.726-.005 13.576 13.576 0 0 0 2.823-1.015 14.035 14.035 0 0 0 2.498-1.44l2.023 2.023c.231.229.619.315.893.205a.603.603 0 0 0 .355-.355c.11-.274.024-.662-.205-.893l-2.337-2.337a13.96 13.96 0 0 0 1.44-2.498 13.576 13.576 0 0 0 1.015-2.822 12.458 12.458 0 0 0-.005-5.726 13.576 13.576 0 0 0-1.015-2.823 14.035 14.035 0 0 0-1.44-2.498l2.337-2.337c.229-.231.315-.619.205-.893zM12 16.5a4.5 4.5 0 1 1 0-9 4.5 4.5 0 0 1 0 9z"/></svg>
